<?xml version="1.0" standalone="no"?>
<!DOCTYPE svg PUBLIC "-//W3C//DTD SVG 1.1//EN" "http://www.w3.org/Graphics/SVG/1.1/DTD/svg11.dtd" >
<svg xmlns="http://www.w3.org/2000/svg">
<metadata>
Created by FontForge 20120731 at Thu Dec 15 17:56:12 2016
 By admin
</metadata>
<defs>
<font id="hfqfont" horiz-adv-x="1024" >
  <font-face 
    font-family="hfqfont"
    font-weight="500"
    font-stretch="normal"
    units-per-em="1024"
    panose-1="2 0 6 3 0 0 0 0 0 0"
    ascent="896"
    descent="-128"
    x-height="792"
    bbox="0 -167 4766 896"
    underline-thickness="0"
    underline-position="0"
    unicode-range="U+0078-E795"
  />
<missing-glyph 
 />
    <glyph glyph-name=".notdef" 
 />
    <glyph glyph-name=".notdef" 
 />
    <glyph glyph-name=".null" horiz-adv-x="0" 
 />
    <glyph glyph-name="nonmarkingreturn" horiz-adv-x="341" 
 />
    <glyph glyph-name="x" unicode="x" horiz-adv-x="1001" 
d="M281 543q-27 -1 -53 -1h-83q-18 0 -36.5 -6t-32.5 -18.5t-23 -32t-9 -45.5v-76h912v41q0 16 -0.5 30t-0.5 18q0 13 -5 29t-17 29.5t-31.5 22.5t-49.5 9h-133v-97h-438v97zM955 310v-52q0 -23 0.5 -52t0.5 -58t-10.5 -47.5t-26 -30t-33 -16t-31.5 -4.5q-14 -1 -29.5 -0.5
t-29.5 0.5h-32l-45 128h-439l-44 -128h-29h-34q-20 0 -45 1q-25 0 -41 9.5t-25.5 23t-13.5 29.5t-4 30v167h911zM163 247q-12 0 -21 -8.5t-9 -21.5t9 -21.5t21 -8.5q13 0 22 8.5t9 21.5t-9 21.5t-22 8.5zM316 123q-8 -26 -14 -48q-5 -19 -10.5 -37t-7.5 -25t-3 -15t1 -14.5
t9.5 -10.5t21.5 -4h37h67h81h80h64h36q23 0 34 12t2 38q-5 13 -9.5 30.5t-9.5 34.5q-5 19 -11 39h-368zM336 498v228q0 11 2.5 23t10 21.5t20.5 15.5t34 6h188q31 0 51.5 -14.5t20.5 -52.5v-227h-327z" />
    <glyph glyph-name="gou" unicode="&#xe601;" horiz-adv-x="1000" 
d="M835 519l-416 -448l-224 288l82 70l142 -148l352 302z" />
    <glyph glyph-name="user2" unicode="&#xe6ff;" 
d="M512 896q-139 0 -257 -68.5t-186.5 -186.5t-68.5 -257t68.5 -257t186.5 -186.5t257 -68.5t257 68.5t186.5 186.5t68.5 257t-68.5 257t-186.5 186.5t-257 68.5zM512 848q192 0 328 -136t136 -328q0 -170 -110 -300q-44 106 -140 171t-214 65t-214 -65t-140 -171
q-110 130 -110 300q0 94 36.5 180t99 148.5t148.5 99t180 36.5zM195 45q35 101 121.5 164t195.5 63t196 -63t121 -164q-63 -59 -145 -92t-172 -33t-172 33t-145 92zM512 350q80 0 136 56t56 135.5t-56 136t-136 56.5t-136 -56.5t-56 -136t56 -135.5t136 -56zM512 686
q60 0 102 -42.5t42 -102t-42 -101.5t-102 -42t-102 42t-42 101.5t42 102t102 42.5z" />
    <glyph glyph-name="suo2" unicode="&#xe795;" 
d="M817 390h-526v203q0 84 60 144t144.5 60t144.5 -60t60 -144q0 -8 5.5 -13.5t13.5 -5.5t13.5 5.5t5.5 13.5q0 100 -71 171.5t-171.5 71.5t-172 -71.5t-71.5 -171.5v-203h-56q-8 0 -13.5 -5.5t-5.5 -13.5v-437q0 -8 5.5 -13.5t13.5 -5.5h621q8 0 13.5 5.5t5.5 13.5v437
q0 8 -5.5 13.5t-13.5 5.5zM798 -47h-583v399h51q4 -1 5.5 -1t5.5 1h521v-399z" />
    <glyph glyph-name="yonghu" unicode="&#xe6fa;" 
d="M614 256q72 31 116 96.5t44 145.5q1 109 -76 186.5t-185.5 77.5t-186.5 -77.5t-78 -186.5q0 -80 44.5 -145.5t115.5 -96.5q-141 -34 -233.5 -151t-92.5 -267h64q0 99 49 183.5t133.5 133.5t183.5 49t183.5 -49t133.5 -133.5t49 -183.5h64q0 150 -92.5 267t-235.5 151z
M312 498.5q0 82.5 58.5 141t141.5 58.5t141.5 -58.5t58.5 -141t-58.5 -141t-141.5 -58.5t-141.5 58.5t-58.5 141z" />
    <glyph glyph-name="suo" unicode="&#xe600;" 
d="M483 110v-110h63v110q17 8 27.5 24.5t10.5 36.5q0 29 -20 49.5t-49 20.5t-49.5 -20.5t-20.5 -49.5q0 -20 10.5 -36.5t27.5 -24.5zM816 414h-22v86q0 116 -81.5 198t-197.5 82t-198 -82t-82 -198v-86h-150v-581h860v581h-129zM278 500q0 98 69.5 167.5t167.5 69.5
t167 -69.5t69 -167.5v-86h-36h-437v86zM905 -123h-778v493h778v-493z" />
    <glyph glyph-name="lingdang" unicode="&#xe643;" 
d="M931 155l-90 80q-3 2 -7 6.5t-11.5 19t-7.5 30.5v148q4 72 -17 118q-2 4 -4.5 9.5t-12.5 23t-22.5 33t-34.5 35t-48 34.5l-84 38h-1v77q-26 21 -80 21t-80 -21v-77h-1l-84 -38q-41 -23 -71.5 -56.5t-40.5 -56.5l-10 -22q-9 -21 -13.5 -50.5t-3.5 -48.5v-19v-148
q0 -16 -6.5 -30t-13.5 -20l-7 -6l-90 -80q-34 -22 -22 -85v-3h441h3h442q1 0 2.5 17t-3.5 39t-22 32zM511 -60q55 0 95 34.5t43 83.5h-275q3 -49 42.5 -83.5t94.5 -34.5z" />
    <glyph glyph-name="yaochi" unicode="&#xe6cb;" 
d="M893 187zM492 558zM568 557zM954 129l-366 370q27 72 12 145.5t-68 126.5q-75 75 -181 75q-107 0 -182 -75t-75 -182q0 -106 75 -182q76 -76 184 -76q36 0 72 11l111 -111q4 -4 11 -6q3 0 5 -1l52 -5l6 -54q2 -17 18 -19l55 -8l5 -50q0 -7 6 -13l109 -113l5 -5
q3 -2 13 -2q2 0 4 1.5t3 1.5h114q12 0 15.5 5t3.5 19v113v6.5v9t-2 9t-5 9.5zM918 1h-89l-99 101l-5 58q-2 17 -19 19l-55 7l-6 55q0 7 -5.5 12.5t-13.5 6.5l-65 6l-114 115q-10 10 -23 5v0q-58 -21 -119 -7t-105 58q-63 63 -63 152t62.5 152t151.5 63t152 -63
q44 -44 56.5 -105t-9.5 -121q-2 -1 -3 -3q-6 -6 -6 -15t6 -15l375 -382q0 -1 -2 -2.5t-2 -2.5v-94v0zM301 722q-31 0 -53 -22t-22 -53t22 -53t53 -22t53 22t22 53t-22 53t-53 22zM301.5 614q-13.5 0 -23 9.5t-9.5 23t9.5 23t23 9.5t22.5 -9.5t9 -23t-9 -23t-22.5 -9.5z" />
    <glyph glyph-name="shezhi1" unicode="&#xe60c;" 
d="M853 326q7 41 7 58q0 24 -7 58l65 55q11 7 13 21t-6 26l-68 116q-17 29 -45 18l-78 -28q-50 39 -103 58l-13 82q-3 13 -14 22t-24 9h-136q-13 0 -24 -9t-14 -22l-13 -82q-53 -19 -103 -58l-78 28q-28 11 -45 -18l-68 -116q-15 -25 7 -47l65 -55q-7 -41 -7 -58
q0 -24 7 -58l-65 -55q-11 -7 -13 -21t6 -26l68 -116q17 -29 45 -18l78 28q50 -39 103 -58l13 -82q3 -14 13 -22.5t25 -8.5h136q13 0 24 9t14 22l13 82q53 19 103 58l78 -28q28 -11 45 18l68 116q15 25 -7 47zM512 189q-81 0 -138 57.5t-57 137.5q0 81 57.5 138t137.5 57
q81 0 138 -57.5t57 -137.5q0 -82 -56.5 -138.5t-138.5 -56.5z" />
    <glyph glyph-name="gerenzhongxin" unicode="&#xe60d;" 
d="M720 561q0 88 -60.5 148.5t-147.5 60.5t-147.5 -60.5t-60.5 -148.5q0 -96 75 -160l20 27q-61 52 -61 133q0 72 51 123.5t123 51.5t123 -51.5t51 -123.5q0 -71 -51 -120.5t-123 -49.5q-102 0 -192 -47.5t-160 -136.5q-20 -28 -36.5 -63t-23.5 -55.5t-21 -69.5l-4 -10
l34 -11l4 11q1 3 7 23.5t7.5 25.5t7 22t8 23t8.5 20t11 22.5t11.5 19.5t14.5 21q133 171 324 171q87 0 147.5 60t60.5 144zM945 19q-1 4 -9 32t-10.5 35t-10.5 29t-14 33t-16 27.5t-21 31.5q-98 123 -229 163l-10 -34q125 -36 211 -153q8 -10 14.5 -21.5t11.5 -19.5t11 -22
t8.5 -20.5t8 -23.5t7 -21.5t7.5 -25t7 -24.5l4 -10l34 10z" />
    <glyph glyph-name="caiwu" unicode="&#xe60e;" 
d="M928 22q2 2 4 5.5t3 4.5q4 4 4 14q0 1 1.5 5.5t1.5 8.5v13v465q0 63 -41 99q-20 30 -58 41q0 58 -42 100.5t-101 42.5h-471q-1 0 -3.5 1t-3.5 -1q-56 0 -103 -41q-44 -44 -44 -102v-588q0 -58 42.5 -100.5t100.5 -42.5h588q13 0 20 4h7q10 0 24 6h3l21 11q3 0 3 3
q9 5 14 14q3 3 7 3q1 2 4.5 7t5.5 7l7 7q1 2 3 5t2.5 5t0.5 3zM806 -19h-588q-44 0 -76.5 32t-32.5 77v588q0 44 31 74.5t75 30.5h485q43 0 74.5 -29.5t34.5 -72.5h-591q-7 0 -12 -4.5t-5 -12.5q0 -17 17 -17h588q44 0 74.5 -31t30.5 -75v-474q0 -2 -1.5 -6t-1.5 -8
q0 -7 -3 -7q0 -3 -7 -10l-4 -7q-1 -2 -3 -5.5t-4 -4.5q-1 -1 -2 -3t-2 -3t-2 -1l-7 -7q-2 -2 -5.5 -3.5t-4.5 -3.5q-2 0 -4 -1.5t-3 -1.5q-2 -2 -5.5 -3.5t-4.5 -3.5h-4q-3 -3 -17 -3h-3q-7 -4 -17 -4zM686 572l-174 -174l-174 174l-24 -24l167 -167h-157v-35h171v-88h-171
v-34h171v-181h34v181h171v34h-171v88h171v35h-157l167 167z" />
    <glyph glyph-name="shezhi" unicode="&#xe60f;" 
d="M488 148q-82 0 -143 55t-69 137q-5 54 15.5 104.5t63.5 82.5l20 -27q-35 -28 -52.5 -70.5t-11.5 -86.5q7 -74 65 -121t132.5 -39.5t121.5 65.5t39 132.5t-66 121.5t-132 39l-3 34q87 10 156 -46t79 -145q11 -88 -48 -157q-58 -68 -143 -79h-24zM826 302q7 41 7 58
q0 24 -7 58l65 55q10 7 12 21t-5 27l-69 116q-5 20 -30 20q-7 0 -14 -3l-78 -28q-51 39 -103 58l-13 82q-3 14 -13 22.5t-25 8.5h-137q-12 0 -23.5 -9t-13.5 -22l-14 -82q-52 -19 -102 -58l-75 28q-4 3 -14 3q-19 0 -31 -17l-68 -116q-15 -26 7 -48l65 -54q-7 -41 -7 -58
q0 -24 7 -59l-65 -58q-10 -7 -12 -20.5t5 -26.5l68 -116q12 -17 31 -17q7 0 14 3l78 27q50 -39 103 -58l13 -82q3 -13 13 -21.5t25 -8.5h136q13 0 24 9t14 21l14 82q52 19 102 58l78 -27q2 0 6 -1.5t8 -1.5q19 0 31 17l68 116q15 25 -7 47zM802 101v0q-5 0 0 0l-82 27l-17 7
l-14 -14q-37 -33 -92 -54l-17 -7l-7 -17l-13 -82q0 -4 -4 -4h-136q-4 0 -4 4l-17 102l-17 7q-54 22 -92 55l-17 10l-17 -7l-79 -27h-3l-68 116v3l65 55l13 13l-3 21q-4 20 -4 54.5t4 54.5l3 21l-13 13l-65 55v3l65 113h3l79 -27l20 -7l14 13q37 33 92 55l17 7l17 102
q0 4 3 4h137q3 0 3 -4l17 -102l18 -7q54 -22 92 -55l20 -13l17 7l79 27h3l68 -116v-4l-64 -54l-14 -14l3 -20q4 -21 4 -55t-4 -55l-3 -20l14 -14l64 -54v-4z" />
    <glyph glyph-name="gerenzhongxin1" unicode="&#xe610;" 
d="M311 565v0q0 -79 56 -135t135 -56t135 56t56 135v0q0 79 -56 135t-135 56t-135 -56t-56 -135zM908 12q-1 60 -33 126t-84 121.5t-126 91.5t-153 36t-153 -36t-126 -91.5t-84 -121.5t-33 -126h792z" />
    <glyph glyph-name="caiwu1" unicode="&#xe611;" 
d="M864 650h-628q-6 0 -12 5t-6 12q0 17 18 17h590q-3 49 -38.5 84.5t-84.5 35.5h-481q-57 0 -89 -38q-41 -36 -41 -88v-588q0 -51 36.5 -88.5t89.5 -37.5h615q2 0 5 2t5 2t5.5 1.5t4.5 1.5q4 0 11 7q1 2 4.5 3.5t5.5 3.5q7 6 10 6q2 2 5.5 4t4.5 3q7 7 7 11q7 6 7 10
q2 1 3.5 4.5t3 5.5t3.5 5.5t4 4.5q0 2 1.5 6t1.5 8q0 2 1.5 5t1.5 5v14v457q3 40 -15 70t-49 46zM700 534l-154 -153h137q17 0 17 -17.5t-17 -17.5h-154v-88h154q17 0 17 -17t-17 -17h-154v-164q0 -17 -17 -17q-8 0 -12.5 4.5t-4.5 12.5v164h-154q-17 0 -17 17t17 17h154v88
h-154q-17 0 -17 17.5t17 17.5h137l-150 150q-12 12 0 24t24 0l160 -161l164 164q12 12 24 0t0 -24z" />
    <glyph glyph-name="xiaoshou1" unicode="&#xe612;" 
d="M314 544v0q0 -82 58 -140t140 -58t140 58t58 140v0q0 82 -58 140t-140 58t-140 -58t-58 -140zM454 49l31 195q0 10 -4 14l-17 27q-5 8 -3 17t10 14l38 20q10 5 20 0l38 -20q7 -5 9 -14t-3 -17l-17 -27q-3 -4 -3 -14l31 -195q2 -10 -4 -16.5t-17 -6.5h386q-3 12 -10.5 44
t-12 46t-13.5 37.5t-21 40.5t-28 33q-60 60 -158.5 95t-193.5 35q-94 0 -192.5 -36t-159.5 -94q-19 -19 -33 -45.5t-20 -44.5t-16.5 -56.5t-15.5 -54.5h399q-10 0 -16.5 6.5t-3.5 16.5z" />
    <glyph glyph-name="xiangmu" unicode="&#xe613;" 
d="M812 616h-133q-8 57 -50 95t-100 38h-430v-621q0 -46 33.5 -79.5t79.5 -33.5h600q46 0 79.5 33.5t33.5 79.5v375q0 49 -33 81t-80 32zM891 131q0 -31 -23 -54.5t-56 -23.5h-600q-32 0 -55.5 23t-23.5 55v584h393q43 0 75.5 -27.5t40.5 -71.5h-362q-6 0 -11.5 -5t-5.5 -12
t5.5 -12t11.5 -5h532q32 0 55.5 -23t23.5 -56v-372zM836 415h-478q-17 0 -17 -17q0 -8 5 -12.5t12 -4.5h478q17 0 17 17q0 7 -4.5 12t-12.5 5zM836 261h-478q-17 0 -17 -17t17 -17h478q17 0 17 17t-17 17zM294 398zM266 398v0q0 -12 8 -20t19.5 -8t19.5 8t8 20v0v0
q0 11 -8 19t-19.5 8t-19.5 -8t-8 -19v0zM294 244zM266 244v0q0 -11 8 -19t19.5 -8t19.5 8t8 19v0v0q0 11 -8 19t-19.5 8t-19.5 -8t-8 -19v0z" />
    <glyph glyph-name="xiangmu1" unicode="&#xe614;" 
d="M116 599v133h410q55 0 94 -39.5t39 -93.5h-543zM812 599h-696v-471q0 -39 27.5 -67.5t68.5 -28.5h600q39 0 67.5 28t28.5 68v375q0 41 -28.5 68.5t-67.5 27.5zM792 183h-430q-18 0 -29.5 12.5t-11.5 28.5q0 15 12.5 28t28.5 13h430q17 0 29 -12.5t12 -28.5t-12 -28.5
t-29 -12.5zM792 370h-430q-18 0 -29.5 12.5t-11.5 28.5t12.5 28.5t28.5 12.5h430q17 0 29 -12.5t12 -28.5t-12 -28.5t-29 -12.5zM249 428zM222 428v0q0 -11 8 -19t19 -8t19 8t8 19v0v0q0 12 -8 20t-19 8t-19 -8t-8 -20v0z" />
    <glyph glyph-name="yunying1" unicode="&#xe615;" 
d="M788 667q-62 11 -114.5 -26t-62.5 -100q-10 -62 26.5 -114.5t99.5 -62.5q24 -5 48 0v-7q-21 -119 -113 -185q-17 -12 -20 -33t10 -38q16 -21 41 -21q16 0 31 10q123 93 150 250q9 41 3 88q19 23 24 62q13 62 -23 114.5t-100 62.5zM324 439q59 23 86 79.5t6 118.5
q-9 24 -27 47q80 29 154 14q27 -3 75 -24q21 -9 39 -2t29 26q10 18 2.5 38t-26.5 30q-46 21 -102 31q-161 27 -290 -61q-26 0 -52 -11q-59 -23 -85.5 -79.5t-6.5 -118.5q23 -56 81.5 -82.5t116.5 -5.5zM348 213q-20 -27 -24 -44q-47 37 -77 90.5t-35 114.5q-6 21 -22 34
t-36 10q-23 0 -37 -16.5t-11 -37.5q10 -102 69.5 -187t152.5 -131q20 -34 37 -48q49 -40 111.5 -34t103.5 55t35 111.5t-55 103.5q-46 41 -108.5 35.5t-103.5 -56.5z" />
    <glyph glyph-name="yunying" unicode="&#xe616;" 
d="M874 360q-16 0 -21 -14q-10 -61 -42.5 -115.5t-83.5 -92.5q-14 -13 -3 -24q6 -6 13 -6t11 3q112 82 139 229q5 14 -13 20zM208 346q0 8 -6.5 12.5t-13.5 1.5q-8 0 -12 -6.5t-2 -13.5q20 -135 137 -229q3 -3 10 -3t14 6q10 11 -4 24q-49 39 -81 93t-42 115zM410 708
q58 23 120.5 23t121.5 -23h7q12 0 17 11q5 15 -10 20q-64 26 -133.5 26t-133.5 -26q-7 -2 -10 -8.5t0 -11.5q3 -8 9.5 -11t11.5 0zM826 698q-5 0 -13.5 1.5t-13.5 1.5q-55 0 -99 -35.5t-51 -90.5q-11 -62 26 -114.5t100 -62.5q5 0 13.5 -2t13.5 -2q55 0 99 35.5t51 91.5
q11 61 -25.5 112.5t-100.5 64.5zM918 524q-8 -44 -40 -71.5t-76 -27.5q-14 0 -20 3q-47 11 -79 48q-27 31 -20 89q7 43 39.5 71t76.5 28q13 0 20 -4q51 -7 79 -47t20 -89zM430 538q0 30 -10 61q-13 30 -41 58q-41 41 -106 41q-24 0 -55 -10q-56 -21 -82.5 -78.5t-5.5 -116.5
q15 -36 37 -58q41 -41 106 -41q17 0 27 4q7 0 28 6q38 13 62.5 42t32.5 68q2 1 3 4.5t2 9.5t2 10zM317 432q-27 -7 -41 -7q-66 0 -105 61q-7 14 -7 17q-18 47 2.5 91.5t69.5 62.5q27 7 40 7q33 0 52 -14l30 -20q1 -1 3.5 -4t5 -5.5t5.5 -4.5q14 -20 17 -31q16 -46 -5 -90.5
t-67 -62.5zM532 265q-70 0 -119 -55q-41 -49 -34.5 -111.5t54.5 -103.5q40 -34 99 -34q71 0 120 54q41 49 34.5 111.5t-55.5 103.5q-43 35 -99 35zM638 166q22 -45 7 -86v-3l-3 -9t-4 -8v-4q-7 -13 -13 -20q-14 -14 -21 -17q-20 -15 -48 -21q-6 -3 -27 -3q-42 0 -75 27
q-38 31 -43 80t26 87q39 45 92 45q42 0 75 -27l17 -18q0 -3 4 -3q6 -7 13 -20z" />
    <glyph glyph-name="xiaoshou" unicode="&#xe617;" 
d="M966 138q-29 104 -89 164q-43 43 -110 75t-142 48q50 26 81 75.5t31 108.5q0 87 -60.5 147.5t-147.5 60.5t-147.5 -60.5t-60.5 -147.5q0 -96 75 -160l20 27q-61 51 -61 133q0 72 51 123t123 51t123 -51t51 -123q0 -71 -51 -120.5t-123 -49.5h-17q-99 0 -201 -39t-161 -98
q-21 -24 -36 -54t-22 -50t-17 -58l-3 -12l-11 -41l35 -10q1 7 4.5 22t5.5 22q13 54 26.5 88.5t41.5 61.5q49 49 129.5 84t164.5 43l-38 -21q-10 -5 -10 -13q0 -14 3 -18l34 -51l-37 -177q0 -10 3 -17l75 -130q5 -10 20.5 -10t20.5 10l75 130q4 3 4 17l-41 174l34 51
q3 7 3 17q0 4 -10 14l-37 17q83 -8 164 -40.5t133 -79.5q19 -19 33.5 -46.5t20 -45t17.5 -58.5q7 -27 10 -44l35 10q-7 24 -14 51zM570 353l-27 -48q-4 -6 -4 -17l41 -174l-58 -109l-65 109l38 178q0 13 -3 17l-31 44l58 28z" />
    <glyph glyph-name="baobiao" unicode="&#xe618;" 
d="M99 814h826v-65h-826v65zM31 814h34v-65h-34v65zM959 814h34v-65h-34v65zM99 128h826v-65h-826v65zM573 -46h-122q-23 0 -39 15.5t-16 39.5v105h235v-105q-2 -23 -19.5 -39t-38.5 -16zM427 80v-71q0 -8 6 -14.5t14 -6.5h123q8 0 14.5 6.5t6.5 14.5v71h-164zM99 715v-553
h826v553h-826zM345 275q-67 0 -114 47t-47 113.5t47 113.5t114 47v-161h160q3 -66 -45 -113t-115 -47zM594 466h-34v34h34v-34zM594 568h-34v34h34v-34zM833 466h-171v34h171v-34zM833 568h-171v34h171v-34z" />
    <glyph glyph-name="hfqLogo" unicode="&#xe619;" horiz-adv-x="2453" 
d="M239 213q-17 0 -26 -8q-11 -10 -14 -25l-18 -106q-4 -19 -18 -19h-1q-9 0 -15.5 -7t-6.5 -16q0 -10 6.5 -16.5t15.5 -6.5h25q55 0 69 69l15 89q4 21 -8 35q-9 11 -24 11zM750 52h-318q-8 0 -13 6t-5 13v95q0 16 -10.5 27t-26.5 11t-26.5 -11t-10.5 -27v-87
q0 -29 21 -50.5t50 -21.5h339q9 0 15.5 6.5t6.5 16t-6.5 16t-15.5 6.5zM883 55h-2q-13 0 -17 19l-19 87q-4 15 -15 25q-9 8 -26 8q-14 0 -23 -11q-12 -14 -8 -36l15 -70q15 -68 70 -68h25q9 0 15 7t6 17q0 9 -6 15.5t-15 6.5v0zM1022 455l192 258q10 12 8 27t-14 25
q-10 8 -23 8v0q-18 0 -30 -15l-206 -275q-8 -10 -20 -10h-3q-9 0 -16 -7t-7 -17q0 -9 7 -16t16 -7h47q16 0 26.5 6t22.5 23zM1487 393h-444q-9 0 -15.5 -6.5t-6.5 -16.5q0 -9 6.5 -15.5t15.5 -6.5h93l-131 -279q-9 -19 -23 -19h-4q-9 0 -15.5 -6.5t-6.5 -15.5t6.5 -15.5
t15.5 -6.5h37q24 0 39.5 14t33.5 50l130 278h247q7 0 12.5 -4.5t5.5 -11.5v-253q0 -7 -5.5 -11.5t-12.5 -4.5h-120q-10 0 -16.5 -7t-6.5 -17q0 -8 7 -14.5t16 -6.5h142q29 0 50 20.5t21 48.5v237q0 29 -21 49t-50 20zM1539 455q12 -17 22.5 -23t26.5 -6h47q9 0 16 7t7 17
q0 9 -7 16t-16 7h-3q-12 0 -20 10l-206 275q-10 12 -25.5 14t-27.5 -7q-12 -10 -14 -25t8 -27zM2379 750h-162q-29 0 -49.5 -21t-20.5 -51v-519q0 -21 -9 -41l-28 -61q-6 -14 -1 -28t20 -20q7 -4 15 -4q23 0 34 22l27 62q15 33 15 70v115h155v-205q0 -8 -5 -13t-12 -5h-39
q-9 0 -15.5 -7t-6.5 -16.5t6.5 -16.5t15.5 -7h60q28 0 49 22t21 52v600q0 30 -20.5 51t-49.5 21zM2375 687v-143h-155v143q0 7 5 12.5t12 5.5h121q7 0 12 -5.5t5 -12.5zM2375 497v-176h-155v176h155zM2114 179q0 9 -6.5 16t-15.5 7h-348q-7 0 -12.5 5t-5.5 13v88
q0 30 -21 51.5t-51 21.5h-54q-10 0 -16.5 -7t-6.5 -17q0 -9 6.5 -16t16.5 -7h32q8 0 13.5 -5t5.5 -12v-89q0 -29 21 -50.5t50 -21.5h370q9 0 15.5 7t6.5 16zM1723 592h36v-323q0 -16 11 -27.5t26 -11.5q16 0 27 11.5t11 27.5v46h147v-46q0 -16 11 -27.5t26 -11.5
q16 0 27 11.5t11 27.5l-1 323h37q9 0 15.5 7t6.5 16q0 10 -6.5 17t-15.5 7h-37v74q0 17 -10.5 28t-26.5 11q-15 0 -26 -11.5t-11 -27.5v-74h-147v74q0 16 -10.5 27.5t-26.5 11.5q-15 0 -26.5 -11.5t-11.5 -27.5v-74h-36q-9 0 -15.5 -7t-6.5 -17q0 -9 6.5 -16t15.5 -7z
M1834 502v90h147v-90h-147zM1834 362v94h147v-94h-147zM1812.5 114q-22.5 0 -38.5 -16t-16 -38t16 -38t38.5 -16t38 16t15.5 38t-15.5 38t-38 16zM631 141q0 22 -16 38t-38 16t-38 -16t-16 -38t16 -38t38 -16t38 16t16 38zM2006.5 114q-22.5 0 -38.5 -16t-16 -38t16 -38
t38.5 -16t38 16t15.5 38t-15.5 38t-38 16zM868 355q-15 0 -26 -11t-11 -26v-18q0 -7 -5 -12.5t-12 -5.5h-253v49h220q28 0 48.5 21t20.5 51v133q0 29 -20.5 50.5t-48.5 21.5h-220v53h321q10 0 16 7t6 17q0 9 -6.5 16t-15.5 7h-321v18q0 16 -11 27.5t-27 11.5t-26.5 -11.5
t-10.5 -27.5v-18h-321q-10 0 -16.5 -7t-6.5 -16q0 -10 6.5 -17t16.5 -7h321v-53h-220q-28 0 -48.5 -21.5t-20.5 -50.5v-133q0 -29 20.5 -50.5t48.5 -21.5h220v-49h-297q-7 0 -12 5t-5 12v193q0 30 -21 51t-51 21h-54q-10 0 -16.5 -7t-6.5 -17q0 -9 6.5 -16t16.5 -7h32
q8 0 13.5 -5t5.5 -12l-1 -191q0 -27 18.5 -47.5t45.5 -24.5h5h670q28 0 48.5 21.5t20.5 50.5v9q0 15 -10.5 26t-25.5 11zM486 423v-47h-198q-7 0 -12.5 5.5t-5.5 13.5v50h216v-22v0zM561 423v22h216v-50q0 -8 -5.5 -13.5t-12.5 -5.5h-198v47v0zM759 562q7 0 12.5 -5.5
t5.5 -11.5v-53h-216v70h198zM270 492v53q0 6 5.5 11.5t12.5 5.5h198v-70h-216z" />
    <glyph glyph-name="hfqLogo2" unicode="&#xe61a;" horiz-adv-x="1025" 
d="M31 231h7l11 -42v0l12 42h7l12 -42v0l12 42h6l-14 -50h-7l-12 43v0l-13 -43h-6l-15 50v0zM128 231h6l12 -42v0l12 42h7l12 -42v0l12 42h6l-15 -50h-6l-13 43v0l-12 -43h-7zM224 231h7l11 -42v0l13 42h6l13 -42v0l11 42h7l-15 -50h-7l-12 43v0l-13 -43h-6zM325 189
q2 0 3 -1t1 -3t-1 -3t-3 -1t-3 1t-1 3t1 3t3 1zM370 231h5v-21h27v21h6v-50h-6v23h-27v-23h-5v50v0zM449 231h31v-5h-25v-17h23v-6h-23v-22h-6v50v0zM517 231h31v-5h-25v-16h24v-6h-24v-18h27v-5h-33v50zM587 231h8l29 -42v0v42h6v-50h-8l-29 42v0v-42h-6v50zM723 181h-29
q-6 0 -10.5 2t-8 5.5t-5.5 8t-2 10t2 10.5t5.5 8t8 5t10 2t10.5 -2t8.5 -5t5 -8t1.5 -10v-7q-2 -5 -5 -9l-6 -5q1 1 -1 0t-3 -1l3 1h16v-5v0zM674 207q0 -5 1.5 -8.5t4 -6t6 -4.5t8 -2t8 2t6 4.5t4 6t1.5 8t-1.5 8t-3.5 6.5q-4 4 -10 6h-4q-5 0 -8.5 -1.5t-6 -4.5t-4 -6.5
t-1.5 -7.5v0v0zM762 189q2 0 3 -1t1 -3t-1 -3t-3 -1t-3 1t-1 3t1 3t3 1zM842 221q-3 3 -6 4.5t-7 1.5v0q-4 0 -7.5 -2t-6 -4.5t-4 -6.5t-1.5 -8v0q0 -4 1.5 -8t4 -6.5t6 -4.5t7.5 -2q5 0 8.5 2t6.5 5l4 -4q-3 -4 -8 -6t-11 -2q-5 0 -10 2q-7 3 -11 9q-2 4 -3 5q-2 4 -2 10
t2 10.5t5.5 8t8 5.5t10.5 2q5 0 10 -1.5t8 -5.5zM908 180q-6 0 -10.5 2t-8 5.5t-5.5 8t-2 10.5t2 10.5t5.5 8t8 5.5t10.5 2t11 -2q7 -3 11 -9q2 -3 2 -4q2 -5 2 -11t-2 -10.5t-5.5 -8t-8 -5.5t-10.5 -2zM908 185q4 0 8 2t6.5 4.5t4 6.5t1.5 8t-2 8q-2 6 -7 9q-1 1 -3 2
q-4 2 -8 2t-8 -1.5t-6 -4.5q-4 -5 -5 -10l-1 -5q0 -4 1.5 -8t4 -7t6.5 -4.5t8 -1.5zM972 231h9l17 -39v0l17 39h9v-50h-6v42v0l-18 -42h-4l-18 42v0v-42h-6v50zM91 352q-7 0 -11 -3q-4 -4 -6 -11l-8 -45q0 -3 -2 -5.5t-5 -2.5h-1q-9 0 -9 -9.5t9 -9.5h11q23 0 29 29l6 37
q2 9 -3 15q-4 5 -10 5zM307 284h-135q-7 0 -7 8v40q0 7 -4.5 11.5t-11.5 4.5q-6 0 -10.5 -4.5t-4.5 -11.5v-37q0 -12 8.5 -21t21.5 -9h143q4 0 6.5 3t2.5 6.5t-2.5 6.5t-6.5 3zM363 285h-1q-5 0 -7 8l-8 37q-2 6 -6 11q-4 3 -12 3q-5 0 -9 -5q-5 -6 -3 -15l6 -29
q6 -29 29 -29h11q9 0 9 10q0 9 -9 9zM422 454l81 109q4 5 3 11.5t-6 10.5q-4 3 -9 3v0q-8 0 -13 -6l-87 -116q-3 -4 -9 -4h-1q-9 0 -9 -10q0 -4 2.5 -7t6.5 -3h20q12 0 21 12zM618 428h-187q-10 0 -10 -10q0 -9 10 -9h39l-56 -118q-3 -8 -9 -8h-2q-9 0 -9 -9q0 -10 9 -10h16
q10 0 16.5 6t13.5 22l56 117h104q7 0 7 -7v-107q0 -7 -7 -7h-51q-10 0 -10 -9q0 -4 3 -6.5t7 -2.5h60q12 0 21 8.5t9 20.5v100q0 12 -9 20.5t-21 8.5zM640 454q9 -12 21 -12h19q10 0 10 10q0 4 -3 7t-7 3h-1q-5 0 -8 4l-87 116q-10 12 -23 3q-5 -4 -6 -11q0 -6 4 -11z
M994 579h-68q-12 0 -21 -9t-9 -22v-219q0 -9 -3 -17l-12 -26q-3 -6 -0.5 -12t8.5 -8q3 -2 6 -2q10 0 15 9l11 26q6 14 6 30v49h66v-87q0 -8 -7 -8h-17q-9 0 -9 -9q0 -10 9 -10h25q12 0 21 9t9 22v253q0 13 -8.5 22t-21.5 9zM993 552v-60h-66v60q0 8 7 8h52q7 0 7 -8z
M993 472v-75h-66v75h66zM883 338q0 4 -3 6.5t-7 2.5h-146q-8 0 -8 8v37q0 13 -9 22t-21 9h-23q-10 0 -10 -10t10 -10h13q8 0 8 -7v-38q0 -12 9 -21t21 -9h156q10 0 10 10zM718 512h15v-136q0 -7 4.5 -12t10.5 -5q7 0 12 5t5 12v19h62v-19q0 -7 4.5 -12t10.5 -5q7 0 11.5 5
t4.5 12v136h15q4 0 7 3t3 7q0 10 -10 10h-15v31q0 7 -4.5 12t-11.5 5q-6 0 -10.5 -5t-4.5 -12v-31h-62v31q0 7 -5 12t-11 5q-7 0 -11.5 -5t-4.5 -12v-31h-15q-10 0 -10 -10t10 -10zM765 474v38h62v-38h-62zM765 415v39h62v-39h-62zM733 287q0 -9 6.5 -15.5t16 -6.5t16 6.5
t6.5 15.5v0q0 10 -6.5 16.5t-16 6.5t-16 -6.5t-6.5 -16.5v0zM211 321.5q0 -9.5 6.5 -16t16 -6.5t16 6.5t6.5 16t-6.5 16t-16 6.5t-16 -6.5t-6.5 -16zM814 287q0 -9 7 -15.5t16.5 -6.5t16 6.5t6.5 15.5v0q0 10 -6.5 16.5t-16 6.5t-16.5 -6.5t-7 -16.5v0zM356.5 412
q-6.5 0 -11 -4.5t-4.5 -11.5v-7q0 -8 -7 -8h-107v21h93q12 0 20.5 9t8.5 21v56q0 13 -8.5 22t-20.5 9h-93v22h136q9 0 9 10t-9 10h-136v7q0 7 -4.5 12t-11.5 5t-11.5 -5t-4.5 -12v-7h-135q-4 0 -7 -3t-3 -7q0 -10 10 -10h135v-22h-92q-12 0 -21 -9t-9 -22v-56q0 -12 9 -21
t21 -9h92v-21h-125q-7 1 -7 7v82q0 12 -9 21t-22 9h-23q-9 0 -9 -10t9 -10h14q8 0 8 -7v-80q0 -12 7.5 -20.5t19.5 -10.5h2h283q12 0 20.5 9t8.5 22v3q0 7 -4.5 11.5t-11 4.5zM195 440v-19h-83q-8 0 -8 8v21h91v-10v0zM227 440v10h91v-21q0 -8 -7 -8h-84v19zM311 499
q2 0 4.5 -2t2.5 -5v-22h-91v29h84zM104 470v22q0 3 2.5 5t5.5 2h83v-29h-91z" />
    <glyph glyph-name="fengkongxt" unicode="&#xe602;" horiz-adv-x="3177" 
d="M182 736h364v-332q0 -10 11 -13v-44h-52q-12 0 -22 14h-65q-21 0 -24 16l-30 55l-27 -49q-9 -26 -33 -22h-60q-3 -14 -21 -14h-55v49q8 0 11 2.5t3 8.5v329zM481 684h-234v-274h25q13 0 13 5l44 79l-79 158h68l49 -96l49 96h62l-79 -158l41 -76q4 -11 16 -11h27v277h-2z
M714 700v30h57v-30h19v-46h-19v-24h17v-52h-17v-184q0 -49 -43 -49h-60v49h33q9 0 12.5 3t3.5 13v38l-5 -16q-4 -11 -28 -11h-32v49h3q13 0 13 10l49 128v44h-65v48h62zM804 489v51h234v-51h-93v-93h93v-49h-250v49h100v93h-84zM799 714h89v16h60v-16h92l-5 -76h-52v30h-130
v-30h-54v76zM828 603q11 0 17 5l11 25h57l-17 -38q-16 -38 -43 -33h-54v43h29v-2zM924 633h62l11 -22q4 -8 16 -8h25v-44h-60q-30 0 -38 33zM1149 681h8q7 0 11 11l8 46h166v-43h-38l2 -5q4 -11 14 -11h19q15 0 19 16l6 38h173v-41h-27l3 -5q4 -8 11 -8h16v-44h-52
q-26 0 -35 22l-13 35h-14l-5 -27q-8 -27 -38 -27h-87q-31 0 -44 38l-5 16h-6l-8 -32q-8 -25 -43 -25h-33v46h-8zM1380 619h157l-5 -57h-60l3 16h-255v-16h-66v54h150v14h76v-11zM1521 554v-57q0 -41 -38 -41h-253v-16h291v-52q-4 -43 -38 -43h-318v211h356v-2zM1459 516
h-229v-22h220q6 0 6 11v11h3zM1456 402h-226v-19h220q4 0 5 2t1 9v8zM1641 687v49h133v-49h-38v-120h38v-49h-38v-116h38v-44h-136v46h46v117h-43v49h43v117h-43zM2029 733v-190q0 -21 -9 -30.5t-29 -7.5h-43v-33h86v-49h-86v-32h86v-44h-252v44h100v32h-92v49h92v33h-87
v228h234zM1880 643v38h-36v-38h36zM1880 551v38h-36v-38h36zM1975 643v38h-30v-38h30zM1975 592h-30v-38h24q6 0 6 5v33zM2469 736h54v-25q0 -27 -5 -32q-3 -6 -35 -6h-112l-98 -40h79l27 10h125l-231 -100h182q11 0 11 11v35h60v-54q0 -27 -8 -36q-6 -5 -38 -5h-111v-147
h-63v144h-166v52l104 38h-104v52l112 35h-112v51h321q14 0 11 11v6h-3zM2211 475h68l-49 -111q-4 -17 -30 -17h-62v49h30q2 0 8 6zM2390 475h65l30 -71q6 -12 14 -8h27v-49h-57q-28 -4 -33 22zM2686 733h57l-68 -122h19l25 43h60l-90 -160h76v-49h-141v38l49 82h-49v59z
M2624 350v49h141v-49h-141zM2860 736h65v-19h87v-46h-133l-32 -74h105q5 0 8 2.5t1 5.5v41h54v-68q0 -32 -30 -32h-24v-139q0 -13 11 -13h40v-47h-73q-36 0 -33 38v161h-127v38l38 87h-38v46h84v19h-3zM2825 529h51l-21 -144q-4 -22 -11 -30q-6 -5 -25 -5h-43v46h11
q16 0 16 17zM277 206q19 0 27 -3q17 -5 22 -8q10 -5 14 -16q5 -11 5 -25q0 -19 -14 -32q-8 -12 -32 -16l43 -63q3 -3 6 -3h5v-5h-60v5h6l2 3v3q0 1 -1 2.5t-1 2.5l-36 52h-51v-57q0 -3 2.5 -5.5t8.5 -2.5v-6h-57v6q8 0 8 5v147q0 5 -8 5v6h111v5zM269 127q13 0 19 3
q3 0 13 5q6 6 6 9q0 1 1.5 4t1.5 6q0 6 -3 11.5t-6 7.5q-1 2 -6 3.5t-7 2.5q-2 0 -8.5 1.5t-10.5 1.5h-57v-49h57v-6zM407 40h9l2 3v122q0 3 -2 3h-9v5h49v-5q-8 0 -8 -5v-123q0 -5 8 -5v-5h-49v10zM527 84v-6q0 -2 5 -8q3 -2 14 -8q3 -1 8.5 -2.5t7.5 -2.5q6 -3 14 -3h11
q8 0 13 3q2 1 4.5 2t4 1.5t2.5 1.5q6 6 6 11q0 7 -9 11q-3 1 -9 2.5l-10 2.5q-3 0 -12 1.5t-15 1.5q-11 0 -27 5q-12 5 -19 11q-8 8 -8 22q0 20 16 33q18 13 49 13q19 0 27 -3q4 -1 10 -2t9 -3q2 -1 4.5 -2t4 -1.5t2.5 -1.5q3 -3 8 -3h3q3 0 3 3l2 -3l-16 -30l-5 3v2
q0 3 -3 3q-1 1 -5 3.5t-7 3.5t-7 1q-8 3 -30 3h-13q-2 0 -6 -1.5t-5 -1.5q-3 0 -8 -5q-3 -3 -3 -8q0 -7 8 -11q3 -2 9.5 -3t9.5 -3q4 0 12.5 -1t14.5 -1q11 0 27 -6q8 -2 19 -13q8 -8 8 -22q0 -12 -8 -24q-11 -11 -16 -14q-4 -1 -11 -4t-11 -4q-8 -3 -24 -3q-14 0 -22 3
q-3 1 -9.5 2.5t-9.5 2.5q-3 2 -8 3t-8 3q-6 2 -8.5 2t-2.5 -2l-6 2l17 36zM736 43q0 -5 6 -5v-6h-44v6q5 0 5 5v122q0 6 -5 6v5h44v-5q-6 0 -6 -6v-54q16 11 22 19q4 3 10.5 8.5t11.5 7.5q10 11 16 14l5 5q0 3 -2 3h-3v5h54v-5q-3 0 -11 -8l-54 -44l52 -65q5 -5 8 -11
q5 -5 8 -5v-5h-49v5q3 0 3 2.5t-3 2.5q-1 0 -5 9l-38 51l-25 -19v-38zM991 40h3v125v6h-3v5h47v-5q-3 0 -3 -3v-3q0 -1 1.5 -2.5t1.5 -2.5l40 -73l41 73l3 5v3q0 3 -3 3v5h49v-5h-3l-2 -3v-122q0 -3 2 -3h3v-5h-38v5q5 0 5 6v86l-54 -103h-3l-54 103v-92q0 -5 5 -5v-6h-38v8
zM1206 40l5 3q3 3 3 6l49 105q0 2 1.5 4.5t1.5 4.5v5v3h-3v5h49v-5h-3v-3q0 -3 3 -5.5t3 -5.5l51 -111q0 -2 1.5 -3t1.5 -3q3 -2 5 -2v-6h-43v6h3l2 2v3q0 3 -2 6l-9 19h-70l-8 -17q0 -1 -1.5 -2.5t-1.5 -2.5v-3q0 -3 3 -3h5v-5h-43v5h-3zM1315 95l-28 54l-24 -54h52z
M1412 40q6 0 6 6v122q0 5 -6 5v6h49v-6q-2 0 -2 -2l8 -8l79 -82v90q0 5 -6 5v6h35v-6q-5 0 -5 -5v-122q0 -6 5 -6v-5h-43v5q3 0 3 3t-3 5l-8 8l-82 87v-95q0 -5 8 -5v-6h-38zM1611 40l5 3q3 3 3 6l49 105q0 2 1 4.5t1 4.5v5v3h-2v5h49v-5h-3v-3q0 -3 2.5 -5.5t2.5 -5.5
l52 -111q0 -2 1.5 -3t1.5 -3q2 -2 5 -2v-6h-46v6h3l2 2v3q0 3 -2 6l-9 19h-70l-8 -17q0 -1 -1.5 -2.5t-1.5 -2.5v-3q0 -3 3 -3h5v-5h-43v5zM1719 95l-27 54l-24 -54h51zM1945 130l-3 3v2q0 2 -2 4q-2 1 -3 2q-6 5 -11 5q-3 2 -8.5 3t-8.5 3q-5 2 -16 2q-16 0 -22 -2
q-2 -2 -9 -4.5t-10 -3.5q-9 -5 -13 -17q-6 -11 -6 -24q0 -11 6 -22q3 -5 13 -16q11 -6 19 -8q6 -3 19 -3q19 0 28 3q13 0 21 8v22h-32q-6 0 -6 -3q-2 0 -2 -6h-6v33h6q0 -1 1 -2.5t1 -2.5q0 -2 3 -1q2 1 3 1h65v-6l-3 -3v-38l3 -2v-3q-3 0 -8 -5q-11 -6 -16 -6
q-3 -1 -11 -2.5t-11 -2.5q-8 -3 -27 -3q-17 0 -38 5q-16 4 -30 14q-8 5 -19 22q-6 8 -6 30q0 13 6 29q11 17 19 25q9 9 30 13q27 6 38 6q16 0 21 -3q3 -1 8.5 -2.5t8.5 -2.5l4 -2t3.5 -1.5t3.5 -2.5t8 -2h2q3 0 3 2l3 -2zM2146 146q0 4 -2 5t-9 1h-79v-33h57q3 0 3 6h5v-36
h-5q0 3 -3 6q-1 1 -2.5 1t-4 -0.5t-4.5 -0.5h-49v-38h85q5 0 5 2t1.5 3t1.5 3h5v-35h-5q0 2 -3 2h-125v6h3l3 2v123q0 2 -3 2h-3v6h117q11 0 11 5h5v-35h-5v5zM2208 40h3v125v6h-3v5h46v-5q-2 0 -2 -3v-3q0 -1 1 -2.5t1 -2.5l41 -73l41 73l3 5v3q0 3 -3 3v5h46v-5h-3l-2 -3
v-122q0 -3 2 -3h3v-5h-38v5q5 0 5 6v86l-54 -103h-3l-54 103v-92q0 -5 6 -5v-6h-38v8h2zM2570 146q0 4 -2.5 5t-8.5 1h-79v-33h57q3 0 3 6h5v-36h-5q0 3 -3 6q-1 1 -2.5 1t-4 -0.5t-4.5 -0.5h-49v-38h84q6 0 6 2t1.5 3t1.5 3h5v-35h-5q0 2 -3 2h-125v6h3l2 2v123q0 2 -2 2
h-3v6h117q11 0 11 5h5v-35h-5v5zM2627 40q5 0 5 6v122q0 5 -5 5v6h48v-6q-2 0 -2 -2l8 -8l79 -82v90q0 5 -6 5v6h41v-6q-5 0 -5 -5v-122q0 -6 5 -6v-5h-44v5q3 0 3 3t-3 5l-8 8l-81 87v-95q0 -5 8 -5v-6h-41h-2zM2882 40h3l2 3v109h-49q-2 0 -2 -6h-6v38h6q0 -5 2 -5t3 -1.5
t3 -1.5h117q2 0 5 3t3 5h5v-38h-5q0 3 -3 6h-49v-109q0 -5 6 -5v-6h-41v8z" />
    <glyph glyph-name="zhanghuxt" unicode="&#xe604;" horiz-adv-x="3177" 
d="M204 388q5 0 8 3l32 62v199h44v-199l30 -59q0 -6 11 -6h21v-38h-46q-12 0 -22 14l-16 32l-19 -38q-3 -11 -24 -11h-44v41h25zM348 728v-294h-49v242h-71v-242h-46v294h166zM383 733h52v-155h116v-51h-122v-136q0 -6 6 -6h24v-43h-62q-25 0 -25 32v153h-11v51h22v155z
M454 516h57l21 -122q0 -6 9 -6h10v-43h-43q-16 -2 -23.5 4t-9.5 23zM505 719h52l-25 -100q-3 -19 -24 -19h-49v46h22q8 0 8 6zM826 706v22h70v-22h152v-144q5 -49 -48 -49h-261v-114q0 -54 -41 -54h-33v51q11 0 14 3t3 11v296h144zM742 657v-98h241q2 0 3 3l3 3v92h-247z
M1160 681h8q7 0 11 11l8 46h166v-43h-38l2 -5q0 -11 14 -11h19q15 0 19 16l5 38h174v-41h-27v-5q4 -8 11 -8h16v-44h-54q-27 0 -35 22l-14 35h-14l-5 -27q-8 -27 -38 -27h-87q-31 0 -43 38l-9 19h-5l-8 -33q-8 -24 -44 -24h-32v43zM1388 619h158l-6 -57h-60l3 16h-255v-16
h-65v54h154v14h76v-11h-5zM1532 554v-57q0 -41 -38 -41h-253v-16h291v-52q-4 -43 -38 -43h-321v211h359v-2zM1467 516h-228v-22h220q5 0 5 11v11h3zM1467 402h-226v-19h220q4 0 5 2t1 9v8zM1649 687v49h133v-49h-38v-120h38v-49h-38v-116h38v-44h-136v46h46v117h-43v49h43
v117h-43zM2037 733v-190q0 -21 -9 -30.5t-29 -7.5h-43v-33h87v-49h-87v-32h87v-44h-253v44h100v32h-92v49h92v33h-86v228h233zM1888 643v38h-36v-38h36zM1888 551v38h-36v-38h36zM1986 643v38h-30v-38h30zM1986 592h-30v-38h24q6 0 6 5v33zM2480 736h54v-25q0 -27 -5 -32
q-3 -6 -36 -6h-111l-100 -43h81l27 11h125l-231 -98h182q11 0 11 11v35h57v-54q0 -27 -8 -36q-5 -5 -38 -5h-111v-147h-63v144h-166v52l104 38h-104v52l112 35h-112v51h321q14 0 11 11v6zM2219 475h68l-49 -111q-4 -17 -30 -17h-62v49h30q2 0 8 6zM2401 475h65l30 -71
q6 -12 14 -8h24v-49h-57q-28 -4 -32 22zM2697 733h57l-68 -122h19l25 43h60l-87 -160h76v-49h-142v38l49 82h-49v59zM2632 350v49h141v-49h-141zM2868 736h65v-19h87v-46h-133l-32 -74h106q4 0 7 2.5t1 5.5v41h54v-68q0 -32 -30 -32h-24v-139q0 -13 11 -13h40v-47h-73
q-36 0 -33 38v161h-127v38l38 87h-38v46h84v19h-3zM2836 529h51l-21 -144q-4 -22 -11 -30q-6 -5 -25 -5h-43v46h11q16 0 16 17zM158 40q5 0 5 6q1 1 2.5 4t2.5 4l60 128q3 2 3 8l3 5q0 3 -3 6q-1 0 -2.5 1t-3.5 1v6h55v-6q-3 0 -6 -2q-2 0 -2 -6v-5q0 -1 1 -3t1 -5l68 -133
q0 -6 6 -6q1 0 2.5 -1.5t2.5 -1.5v-5h-57v5h3l2 3q0 6 -2 8l-14 25h-73l-11 -22q-3 -5 -3 -11q0 -3 6 -3v-5h-46v5zM280 100l-27 60l-30 -60h57zM527 135v3q0 3 -3 6q-1 1 -4 2.5t-4 3t-6 2.5t-8 2q-2 0 -8 1.5t-11 1.5q-16 0 -21 -3l-17 -8q-8 -8 -10 -16q-3 -5 -3 -22
q0 -5 5 -21q6 -11 11.5 -16.5t15.5 -11.5q6 -2 19 -2q11 0 19 2q3 2 8.5 3t8.5 3l11 5l5 6v2v3l3 3l24 -35l-2 -3l-6 3q-5 0 -8 -3q-5 -6 -14 -6q-2 0 -9.5 -2.5t-11.5 -2.5q-9 -3 -28 -3q-8 0 -29 6q-11 2 -28 13q-10 7 -19 25q-8 16 -8 32.5t8 32.5q7 13 19 22
q17 10 28 13q21 6 29 6q17 0 22 -3q3 -1 10 -2.5t9 -3.5q2 -1 7 -2t7 -3l5 -5h3q3 0 3 2l2 -2l-21 -30zM731 135v3q0 3 -3 6q-1 1 -4 2.5t-4.5 3t-6.5 2.5t-7 2q-2 0 -8 1.5t-11 1.5q-16 0 -22 -3l-16 -8q-8 -8 -11 -16q-2 -5 -2 -22q0 -5 5 -21q5 -11 10.5 -16.5
t16.5 -11.5q6 -2 19 -2q11 0 19 2q3 2 8.5 3t8.5 3q2 1 4 2.5t3.5 2t2.5 0.5l6 6v2v3l3 3l24 -35l-3 -3l-5 3q-6 0 -8 -3q-6 -6 -14 -6q-2 0 -9.5 -2.5t-12.5 -2.5q-8 -3 -27 -3q-8 0 -30 6q-11 2 -27 13q-10 7 -19 25q-8 16 -8 32.5t8 32.5q7 13 19 22q16 10 27 13
q22 6 30 6q16 0 22 -3q3 -1 9.5 -2.5t9.5 -3.5q2 -1 7 -2t7 -3q2 -3 8 -3h2q3 0 3 3l3 -3l-25 -32zM894 179q16 0 32 -6q14 -4 27 -13q9 -6 19 -22q9 -12 9 -32.5t-9 -32.5q-10 -16 -19 -22q-16 -11 -27 -13.5t-32 -2.5q-25 0 -33 3q-11 2 -27 13q-8 6 -19 22q-8 12 -8 32.5
t8 32.5q11 16 19 22q16 11 27 13q22 6 33 6zM893.5 154q-13.5 0 -21.5 -2q-16 -8 -19 -11q-8 -8 -14 -16q-5 -11 -5 -22q0 -6 5 -22q3 -5 14 -16q7 -7 19 -11q5 -3 22 -3q13 0 21 3q17 8 19 11q9 8 14 16q5 11 5 22q0 5 -5 22q-3 5 -14 16q-6 7 -19 11q-8 2 -21.5 2z
M1084 171q-8 0 -8 -6v-76q0 -17 10 -24q13 -8 36 -8t35 8q11 7 11 24v76q0 6 -8 6v5h46v-5q-8 0 -8 -6v-81q0 -8 -6 -19q-2 -6 -13 -16q-7 -7 -25 -11q-10 -3 -34.5 -3t-35.5 3q-13 3 -25 11q-11 10 -13 16q-6 11 -6 19v81q0 3 -2 3h-9v5h47v-2h8zM1279 40q6 0 6 6v122
q0 5 -6 5v6h49v-6q-3 0 -3 -2l9 -8l78 -82v90q0 5 -5 5v6h41v-6q-6 0 -6 -5v-122q0 -6 6 -6v-5h-44v5q3 0 3 3t-3 5l-8 8l-81 87v-95q0 -5 8 -5v-6h-41h-3zM1551 40h3l2 3v109h-49q-2 0 -2 -6h-6v38h6q0 -5 2 -5t3.5 -1.5t2.5 -1.5h117q2 0 5 3t3 5h5v-38h-5q0 3 -3 6
q-1 2 -3 1l-2 -1h-44v-109q0 -5 6 -5v-6h-41v8zM1831 84v-6q0 -2 5 -8q3 -1 7 -4t6.5 -4t8 -2.5t8.5 -2.5q5 -3 14 -3h10q9 0 14 3q2 1 4.5 2t4 1.5t2.5 1.5q5 6 5 11q0 7 -8 11q-3 1 -9 2.5l-10 2.5q-8 3 -27 3q-11 0 -27 5q-12 5 -19 11q-8 8 -8 22q0 20 16 33
q18 13 49 13q19 0 27 -3q3 -1 9.5 -2t9.5 -3q2 -1 4.5 -2t4 -1.5t2.5 -1.5q3 -3 8 -3h3q3 0 3 3h8l-17 -30l-5 2v3q0 3 -3 3q-1 1 -5 3l-7 3.5t-7 1.5q-8 3 -30 3h-13q-2 0 -6 -1.5t-5 -1.5q-3 0 -8 -5q-3 -3 -3 -6q0 -7 8 -11q3 -1 9.5 -2.5t9.5 -2.5q8 -3 27 -3
q11 0 27 -5q9 -3 20 -14q8 -8 8 -22q0 -12 -8 -24q-11 -11 -17 -14q-4 -1 -10.5 -3.5t-11.5 -4.5q-8 -2 -24 -2q-14 0 -22 2q-3 1 -9.5 2.5t-9.5 3.5q-2 1 -7.5 2.5t-8.5 2.5q-5 3 -8 3t-3 -3l-5 3l16 35zM2018 165l-5 6h-6v5h55v-5h-3l-3 -3v-3l3 -2l32 -44l30 41l3 3
q1 2 3 2t2 6q0 2 -2 2h-3v6h49v-6q-3 0 -8 -5l-8 -8l-49 -65v-49q0 -6 5 -6v-5h-43v5q5 0 5 6v49zM2235 84v-6q0 -2 6 -8q3 -1 7 -4t6.5 -4t8 -2.5t8.5 -2.5q5 -3 13 -3h11q8 0 14 3q2 1 4.5 2t3.5 1.5l3 1.5q5 6 5 11q0 7 -8 11q-3 1 -9.5 2.5t-9.5 2.5q-8 3 -27 3
q-11 0 -27 5q-13 5 -19 11q-9 8 -9 22q0 20 17 33q18 13 49 13q19 0 27 -3q3 -1 9.5 -2t9.5 -3q2 -1 4.5 -2t3.5 -1.5l3 -1.5q2 -3 8 -3h2q3 0 3 3l3 -3l-16 -30l-6 3v2q0 3 -3 3q-1 1 -4.5 3.5t-7 3.5t-7.5 1q-8 3 -29 3h-14q-1 0 -5 -1.5t-6 -1.5q0 -1 -3 0q0 -1 -1 -3.5
t-1 -4.5q0 -7 8 -11q3 -1 9 -2.5l10 -2.5q8 -3 27 -3q11 0 27 -5q8 -3 19 -14q8 -8 8 -22q0 -12 -8 -24q-11 -11 -16 -14q-4 -1 -11 -3.5t-11 -4.5q-8 -2 -24 -2q-14 0 -22 2q-3 1 -9.5 2.5t-9.5 3.5q-3 1 -8.5 2.5t-7.5 2.5q-6 3 -8.5 3t-2.5 -3l-6 3l17 35zM2464 40h2l3 3
v109h-49q-3 0 -3 -6h-5v38h5q0 -5 3 -5q1 0 2.5 -1.5t3.5 -1.5h116q3 0 5.5 3t2.5 5h6v-38h-6q0 3 -2 6q-1 2 -3 1t-3 -1h-43v-109q0 -5 5 -5v-6h-40v8zM2738 146q0 4 -2 5t-9 1h-79v-33h57q3 0 3 6h5v-36h-5q0 3 -3 6h-59v-38h84q5 0 5 2t1.5 3t1.5 3h5v-35q0 2 -2 2h-125
v6h2l3 2v123q0 2 -3 2h-2v6h116q11 0 11 5h6v-35h-11v5zM2819 40h3v125v6h-3v5h47v-5q-3 0 -3 -3v-3q0 -1 1.5 -2.5t1.5 -2.5l40 -73l41 73l3 5v3q0 3 -3 3v5h46v-5h-2l-3 -3v-122q0 -3 3 -3h2v-5h-38v5q6 0 6 6v86l-55 -103h-2l-52 103v-92q0 -5 5 -5v-6h-38v8z" />
    <glyph glyph-name="baobiaoxt" unicode="&#xe605;" horiz-adv-x="3177" 
d="M223 695v35h62v-35h30v-62h-30v-25h25v-71h-25v-157q0 -21 -6.5 -29.5t-23.5 -8.5h-73v52h33q8 0 8 8v70l-17 -27q-8 -16 -24 -16h-19v54q9 0 16 11l44 87v52h-57v62h57zM543 730v-133q2 -20 -6 -29t-26 -9h-93v60h57q6 0 6 5v44h-87v-122h155v-66l-38 -62l16 -22
q7 -11 22 -11v-43h-30q-14 0 -25 11l-16 19l-19 -19q-11 -11 -27 -11h-35v49h8q8 0 13 5l17 17l-41 48v-119h-63v388h212zM467 459l16 24h-92v-13h65zM671 722h155v16h59v-16h155v-46h-155v-33h153v-48h-153v-36h161v-49h-250l-38 -49v-62q0 -2 2 -3t3 -2h103v-47h-133
q-34 5 -38 38v41h-30v49h14q14 0 27 14l3 2l14 17h-58v48h161v36h-158v51h158v33h-155v46zM921 445v30h46q15 0 19 16h57l-11 -32q-8 -30 -35 -30h-57l22 -16l5 -6q11 -11 27 -11h52v-43h-79q-18 0 -41 13l-141 120h92zM1149 681h8q7 0 11 11l8 46h166v-43h-38v-8
q8 -8 16 -8h19q15 0 19 16l6 38h173v-41h-27l3 -5q0 -4 3 -6t5 -2h16v-44h-51q-27 0 -36 22l-13 35h-14l-5 -27q-8 -27 -38 -27h-87q-31 0 -44 38l-5 16h-5l-17 -30q-8 -24 -43 -24h-33v43h3zM1377 619h158l-6 -57h-60l3 16h-255v-16h-65v54h152v14h76v-11h-3zM1521 554v-57
q0 -41 -38 -41h-253v-16h291v-52q-4 -43 -38 -43h-320v211h358v-2zM1459 513h-229v-22h220q6 0 6 11v11h3zM1456 402h-226v-19h220q4 0 5 2t1 9v8zM1638 687v49h133v-49h-38v-120h38v-49h-38v-116h38v-44h-136v46h46v117h-43v49h43v117h-43zM2026 733v-190q0 -21 -9 -30.5
t-29 -7.5h-43v-33h87v-49h-87v-32h87v-44h-253v44h101v32h-93v49h93v33h-87v228h233zM1877 643v38h-35v-38h35zM1877 551v38h-35v-38h35zM1975 643v38h-30v-38h30zM1975 592h-30v-38h24q6 0 6 5v33zM2469 736h54v-25q0 -27 -5 -32q-3 -6 -35 -6h-112l-98 -40h79l27 10h125
l-228 -97h182q11 0 11 10v36h57v-55q0 -27 -8 -35q-6 -5 -38 -5h-111v-147h-63v144h-166v52l104 38h-104v49l112 35h-112v49h321q14 0 11 11v8h-3zM2208 472h68l-49 -111q0 -14 -27 -14h-62v49h30q2 0 8 6zM2390 472h65l30 -70q6 -12 14 -8h24v-49h-57q-28 -4 -32 21z
M2686 733h57l-68 -122h19l25 43h60l-90 -160h76v-49h-141v38l49 82h-49v59zM2624 350v49h141v-49h-141zM2857 736h66v-19h87v-46h-134l-32 -74h106q4 0 7 2.5t1 5.5v41h54v-68q0 -32 -30 -32h-24v-139q0 -13 11 -13h41v-47h-74q-36 0 -32 38v161h-128v38l38 87h-38v46h84v19
h-3zM2825 529h51l-21 -144q-4 -22 -11 -30q-6 -5 -25 -5h-43v46h11q16 0 16 17zM277 203q19 0 27 -2q17 -6 22 -8q10 -5 14 -17q5 -11 5 -24q0 -19 -14 -33q-8 -9 -32 -13l43 -63q3 -3 6 -3h5v-5h-60v5h6l2 3v3q0 1 -1 2.5t-1 2.5l-36 52h-51v-57q0 -3 3 -6q1 0 3 -1t5 -1
v-6h-57v6q8 0 8 5v147q0 5 -8 5v6h111v2zM269 127q13 0 19 3q3 0 13 5q6 6 6 9q0 1 1.5 4t1.5 6q0 6 -3 11.5t-6 7.5q-1 2 -6 3.5t-7 2.5q-2 0 -8.5 1.5t-10.5 1.5h-57v-49h57v-6zM527 146q0 4 -2 5t-9 1h-79v-33h60q3 0 3 6h5v-36h-5q0 3 -3 6h-60v-38h85q5 0 5 2t1.5 3
t1.5 3h5v-35h-5q0 2 -3 2h-125v6h3l2 2v123q0 2 -2 2h-3v6h114q11 0 11 5h5v-35h-5v5zM587 165q0 6 -8 6v5h95q24 0 40 -8q14 -9 14 -32.5t-14 -32.5q-12 -8 -40 -8h-55v-49q0 -6 8 -6v-5h-46v5q8 0 8 6v119h-2zM671 116q11 0 16.5 3t5.5 14q0 8 -5.5 13.5t-16.5 5.5h-54
v-36h54zM836.5 179q16.5 0 32.5 -6q11 -2 27 -13q8 -6 19 -22q9 -12 9 -32.5t-9 -32.5q-11 -16 -19 -22q-16 -11 -27 -13.5t-32 -2.5q-25 0 -33 3q-11 2 -27 13q-8 6 -19 22q-8 12 -8 32.5t8 32.5q11 16 19 22q16 11 27 13q16 6 32.5 6zM837 154q-14 0 -22 -2
q-16 -8 -19 -11q-8 -8 -14 -16q-5 -11 -5 -22q0 -6 5 -22q3 -5 14 -16q7 -7 19 -11q5 -3 22 -3q13 0 21 3q17 8 19 11q8 8 14 16q5 11 5 22q0 5 -5 22q-3 5 -14 16q-6 7 -19 11q-4 0 -11.5 1t-9.5 1zM1051 176q32 0 46 -11q17 -12 17 -32q0 -11 -3 -16.5t-8 -10.5
q-2 -2 -6 -4.5t-5 -4.5q-3 -1 -7 -2.5t-7 -2.5l33 -46q1 -1 2 -3q2 -3 3 -3l6 -2v-6h-49v6q5 0 5 2l-5 11l-25 38h-46v-46q0 -3 3 -3h5v-5h-43v5q5 0 5 6v122q0 5 -5 5v6h84v-3zM1051 114q33 0 33 19q0 9 -8 13q-11 6 -25 6h-51v-38h51zM1195 38h3l3 2v109h-49q-3 0 -3 -5
h-5v38h5q0 -6 3 -6q1 0 2.5 -1.5t2.5 -1.5h117q3 0 5.5 3t2.5 6h5v-38h-5q0 2 -3 5h-49v-109q0 -5 6 -5v-5h-41v8zM1328 38h8l3 2v123q0 2 -3 2h-8v6h49v-6q-8 0 -8 -5v-122q0 -6 8 -6v-5h-49v11zM1434 38q6 0 6 5v122q0 6 -6 6v5h49v-5q-3 0 -3 -3l8 -8l79 -82v90q0 5 -5 5
v6h41v-6q-6 0 -6 -5v-122q0 -6 6 -6v-5h-44v5q3 0 3 3t-3 6l-8 8l-82 87v-95q0 -6 9 -6v-5h-41h-3zM1776 130l-2 3v2q0 6 -6 6q-1 0 -4.5 2.5t-6.5 2.5q-2 2 -7.5 3t-8.5 3q-3 0 -8.5 1t-7.5 1q-17 0 -22 -2q-8 -3 -19 -8q-10 -5 -14 -17q-5 -11 -5 -24q0 -11 5 -22
q3 -5 14 -16q3 -3 19 -8q8 -3 19 -3q19 0 27 3q14 0 22 8v22h-33q-5 0 -5 -3q0 -1 -1.5 -2.5t-1.5 -3.5h-5v33h5q0 -1 1.5 -2.5t1.5 -2.5q0 -2 2 -1t3 1h66v-6l-3 -3v-40q3 -3 5 -3v-3q-2 0 -7.5 -5.5t-16.5 -5.5q-6 0 -22 -5q-8 -3 -27 -3q-16 0 -38 6q-15 3 -30 13
q-8 6 -19 22q-5 8 -5 30q0 13 5 30q11 16 19 24q16 11 30 14q27 5 38 5q16 0 22 -3q2 -1 7.5 -2.5t8.5 -2.5q2 -1 4.5 -2t4 -1.5t2.5 -1.5q3 -3 8 -3h3q2 0 2 3l3 -3zM1958 81v-5q0 -3 6 -8q3 -2 7 -4.5t6.5 -4t8 -3t8.5 -2.5q2 -1 5.5 -1t6.5 0.5t4 0.5h11q8 0 13 3
q2 1 4.5 2t4 1.5t2.5 1.5q6 6 6 11q0 7 -8 11q-3 1 -9.5 2.5t-9.5 2.5q-4 0 -13 1.5t-15 1.5q-10 0 -27 5q-12 5 -19 11q-8 8 -8 22q0 20 16 33q18 13 49 13q19 0 27 -3q4 -1 10 -2t9 -3q3 -1 7 -2.5t7 -2.5q5 -3 8 -3h3q3 0 3 3l2 -3l-16 -30l-5 3v2q0 3 -3 3q-1 1 -5 3.5
t-7 3.5t-7 1t-14 1.5t-16 1.5h-14q-1 0 -5 -1.5t-5 -1.5q-3 0 -9 -5q-2 -3 -2 -8q0 -7 8 -11q3 -2 9 -3t10 -3q4 0 12.5 -1t14.5 -1q11 0 27 -6q8 -2 19 -13q8 -8 8 -22q0 -12 -8 -24q-11 -11 -16 -14q-4 -1 -11 -4t-11 -4q-4 0 -12 -1.5t-12 -1.5q-14 0 -22 3
q-3 1 -9.5 2.5t-9.5 2.5q-3 2 -8.5 3t-7.5 3q-6 2 -8.5 2t-2.5 -2l-6 2l17 36zM2124 165l-5 6h-6v5h55v-5h-3l-3 -3v-3l3 -2l32 -44l30 41q1 1 2 3q2 2 4 2q0 2 1 3t1 3t-2 2h-3v6h49v-6q-3 0 -8 -5l-8 -8l-49 -65v-49q0 -6 5 -6v-5h-46v5q5 0 5 6v49zM2322 81v-5q0 -3 6 -8
q2 -3 13 -9q3 -1 8.5 -2.5t8.5 -2.5q3 0 7.5 -1.5t5.5 -1.5h11q8 0 14 3q2 1 4.5 2t3.5 1.5l3 1.5q5 6 5 11q0 7 -8 11q-3 2 -9.5 3t-9.5 3q-8 2 -27 2q-11 0 -28 6q-12 4 -19 11q-8 8 -8 21q0 21 17 33q18 13 49 13q19 0 27 -2q3 -1 9.5 -2.5t9.5 -3.5q2 -1 6.5 -2.5
t6.5 -2.5q3 -3 8 -3h3q3 0 3 3l3 3l-17 -30l-5 2v3q0 3 -3 3q-1 1 -5 3l-7 3.5t-7 1.5q-8 3 -30 3h-13q-2 0 -6 -1.5t-5 -1.5q-3 0 -8 -5q-3 -3 -3 -6q0 -7 8 -11q3 -1 9.5 -2.5t9.5 -2.5q4 0 12.5 -1.5t14.5 -1.5q11 0 27 -5q9 -3 19 -14q9 -8 9 -22q0 -12 -9 -24
q-10 -11 -16 -14q-4 -1 -11 -3.5t-11 -4.5q-4 0 -12 -1t-12 -1q-14 0 -22 2q-3 1 -9.5 2.5t-9.5 3.5q-3 1 -8 2.5t-8 2.5q-6 3 -8.5 3t-2.5 -3l-5 3l16 35h5zM2526 38h3l2 2v109h-48q-3 0 -3 -5h-6v38h6q0 -6 3 -6q1 0 2.5 -1.5t2.5 -1.5h117q3 0 5 3q3 0 3 6h5v-38h-5
q0 2 -3 5h-49v-109q0 -5 6 -5v-5h-41v8zM2781 146q0 4 -2 5t-8 1h-79v-33h57q2 0 2 6h6v-36h-6q0 3 -2 6h-60v-38h84q6 0 6 2t1 3t1 3h6v-35h-6q0 2 -2 2h-125v6h2l3 2v123q0 2 -3 2h-2v6h117q10 0 10 5h6v-35h-6v5zM2841 38h3v125v5h-3v5h46v-5q-2 0 -2 -3v-2q0 -2 1 -3
t1 -3l41 -73l41 73l3 6v2q0 3 -3 3v5h46v-5h-3l-2 -3v-122q0 -3 2 -3h3v-5h-38v5q5 0 5 6v89l-54 -103h-3l-51 103v-92q0 -5 5 -5v-6h-38v6z" />
    <glyph glyph-name="zhanghu" unicode="&#xe606;" horiz-adv-x="1138" 
d="M737 249q-83 7 -90 64v17v0q20 32 37 73q24 55 24 104q0 25 -8 49.5t-23.5 46.5t-42.5 35.5t-62.5 13.5t-62.5 -13.5t-42.5 -35.5t-23.5 -46.5t-8 -49.5q0 -35 23 -104q8 -18 17.5 -36t15.5 -28l5 -9q1 -3 1 -8t-3 -18t-11 -23.5t-28 -20t-49 -11.5t-50 -10.5t-30 -16
t-13.5 -19t-4.5 -14v-6.5v-70h527v70l-1 6t-6 15.5t-14 19t-29 17t-48 8.5zM314 296q13 20 26 49q20 46 20 81q0 43 -28 78t-82 35t-82 -35t-28 -78q0 -35 20 -81l29 -58q0 -2 0.5 -6t-2 -14.5t-9 -18.5t-22.5 -15.5t-39.5 -9t-40 -7.5t-24 -13.5t-11 -14.5t-3.5 -12v-5v-55
h209v52q0 31 16 65.5t42 53.5q2 1 3.5 2.5t3 3.5t2.5 3zM1026 223q-16 1 -29 5.5t-20.5 10t-12.5 12t-7 13t-3 12t-0.5 8.5l0.5 3q17 26 29 58q20 46 20 81q0 43 -28 78t-82 35t-82 -35t-28 -78q0 -35 20 -81q16 -35 29 -55q26 -19 43.5 -55t17.5 -67v-52h209v55l1 9
q-7 33 -62 42q-7 1 -15 1z" />
    <glyph glyph-name="fengkong" unicode="&#xe60a;" horiz-adv-x="1138" 
d="M247 366q28 -124 106.5 -217t181.5 -109v326h-288zM234 652q3 -2 9 -4t24.5 -5.5t37.5 -3.5t46 4.5t51 16.5l133 68v-286h-301v210zM603 40v326h288q-28 -124 -106.5 -217t-181.5 -109zM904 652q-3 -2 -9 -4t-24.5 -5.5t-37.5 -3.5t-46 4.5t-51 16.5l-133 68v-286h301
v210z" />
    <glyph glyph-name="fengkongxt1" unicode="&#xe60b;" horiz-adv-x="5047" 
d="M273 725h572v-520q0 -16 17 -22v-68h-81q-20 0 -34 22h-103q-17 0 -26 5t-12 20l-47 85l-43 -76q-13 -41 -51 -34h-94q-5 -22 -34 -22h-81v77q13 0 17 3.5t4 13.5v516h-4zM742 644h-367v-431h39q21 0 21 9l68 124l-128 247h107l77 -149l77 149h98l-124 -247l64 -120
q6 -17 26 -17h42v435zM1109 670v47h90v-47h30v-77h-30v-38h26v-81h-26v-291q0 -76 -68 -76h-94v76h51q14 0 20 5.5t6 20.5v60l-9 -26q-6 -17 -43 -17h-47v77h5q21 0 21 17l77 201v76h-103v77h94v-4zM1250 337v81h367v-81h-145v-145h145v-77h-392v77h157v145h-132zM1242 695
h136v22h94v-26h145l-8 -119h-82v47h-204v-47h-86v123h5zM1289 516q17 0 25 9l17 38h90l-26 -60q-12 -28 -30 -41t-38 -10h-85v69h47v-5zM1438 567h98l17 -34q6 -12 26 -12h38v-69h-94q-47 0 -60 51zM1792 640h13q11 0 17 17l13 73h260v-69h-60l4 -8q7 -13 26 -13h30
q23 0 30 26l8 59h273v-64h-42l4 -8q6 -13 17 -13h26v-68h-81q-42 0 -56 34l-21 55h-22l-8 -42q-7 -23 -20.5 -33t-39.5 -10h-136q-49 0 -69 60l-8 25h-9l-12 -51q-13 -38 -69 -38h-68v68zM2150 546h248l-9 -89h-94l5 25h-401v-25h-107v85h243v17h120v-13h-5zM2377 439v-89
q0 -64 -60 -64h-397v-26h457v-81q-4 -32 -19.5 -50t-40.5 -18h-499v333h559v-5zM2278 380h-358v-34h346q8 0 8 17v17h4zM2274 205h-354v-30h346q6 0 7 3t1 14v13zM2560 649v76h209v-76h-60v-188h60v-77h-60v-183h60v-69h-213v73h72v183h-68v73h68v188h-68zM3174 721v-299
q0 -32 -14 -47t-45 -12h-69v-52h137v-76h-137v-52h137v-68h-397v68h158v52h-145v76h145v52h-137v358h367zM2940 580v60h-56v-60h56zM2940 439v60h-56v-60h56zM3089 580v60h-47v-60h47zM3089 499h-47v-60h39q3 0 5.5 3t2.5 6v51zM3866 725h85v-38q0 -43 -9 -51q-4 -9 -55 -9
h-175l-154 -64h124l43 17h196l-358 -153h286q9 0 13 3.5t4 13.5v55h89v-85q0 -43 -13 -56q-8 -8 -59 -8h-175v-231h-98v227h-261v81l162 59h-162v81l175 56h-175v77h504q23 0 17 17v8h-4zM3456 316h107l-77 -175q-7 -26 -47 -26h-98v77h47q4 0 13 9zM3742 316h102l47 -111
q10 -19 22 -13h38v-77h-90q-44 -6 -51 34zM4207 721h90l-107 -192h30l38 68h94l-137 -251h120v-77h-222v60l77 128h-77v93zM4109 119v77h222v-77h-222zM4480 725h102v-30h137v-76h-209l-51 -116h166q7 0 11.5 3.5t1.5 9.5v64h85v-106q0 -27 -11 -39.5t-36 -12.5h-38v-217
q0 -22 17 -22h64v-72h-115q-30 0 -42.5 14t-8.5 46v251h-201v60l60 137h-60v76h132v30h-4zM4425 401h81l-35 -226q-6 -36 -17 -47q-8 -9 -38 -9h-64v73h17q26 0 26 26z" />
    <glyph glyph-name="baobiaoxt11" unicode="&#xe61b;" horiz-adv-x="5047" 
d="M380 627v56h98v-56h47v-98h-47v-38h38v-111h-38v-248q0 -32 -11 -45.5t-36 -13.5h-115v81h51q13 0 13 12v111l-26 -42q-13 -26 -38 -26h-30v85q14 0 25 17l69 137v77h-90v98h90v4zM883 683v-209q3 -32 -9.5 -46t-41.5 -14h-145v94h90q3 0 5.5 2.5t2.5 5.5v69h-136v-192
h243v-103l-60 -94l21 -34q12 -17 34 -17v-68h-46q-22 0 -39 17l-25 30l-26 -34q-17 -17 -43 -17h-55v76h13q12 0 21 9l26 25l-64 77v-187h-99v605h333v5zM768 260l26 39h-145v-22h102zM1084 670h243v25h94v-25h243v-73h-243v-51h239v-77h-239v-55h252v-77h-393l-60 -77v-94
q0 -1 1 -2.5t3.5 -3t4.5 -2.5h162v-73h-209q-54 7 -60 60v64h-47v77h22q21 0 42 21l4 4l22 26h-90v77h252v55h-248v77h248v51h-243v73zM1476 235v47h73q23 0 30 25h89l-17 -51q-6 -22 -21 -34.5t-34 -12.5h-90l34 -26l9 -8q17 -17 42 -17h82v-68h-124q-29 0 -64 21l-222 188
h145zM1835 606h12q12 0 18 17l12 72h261v-68h-60l4 -8q7 -13 26 -13h30q23 0 29 25l9 60h273v-64h-43l5 -8q6 -13 17 -13h25v-68h-81q-42 0 -55 34l-22 55h-21l-8 -42q-7 -23 -21 -33t-39 -10h-137q-48 0 -68 60l-8 25h-9l-13 -51q-13 -38 -68 -38h-68v68zM2197 508h248
l-9 -90h-94l5 26h-401v-26h-111v85h243v18h119v-13zM2419 405v-89q0 -64 -60 -64h-396v-26h456v-81q-3 -32 -18.5 -50t-41.5 -18h-499v328h559zM2321 346h-358v-35h345q9 0 9 18v17h4zM2317 166h-354v-29h345q6 0 7.5 3t1.5 14v12zM2607 614v77h209v-77h-60v-187h60v-77h-60
v-184h60v-68h-213v73h72v183h-72v77h68v188h-64v-5zM3217 687v-299q0 -65 -60 -59h-68v-52h137v-76h-137v-52h137v-68h-397v68h158v56h-145v77h145v51h-137v358h367v-4zM2982 546v60h-55v-60h55zM2982 401v60h-55v-60h55zM3132 546v60h-47v-60h47zM3132 465h-47v-60h38
q3 0 6 3t3 6v51zM3908 691h86v-38q0 -43 -9 -51q-4 -9 -55 -9h-175l-154 -64h124l42 17h197l-359 -153h286q10 0 13.5 3.5t3.5 13.5v51h90v-86q0 -42 -13 -55q-8 -9 -60 -9h-175v-230h-98v226h-260v81l162 60h-162v81l175 56h-175v76h503q23 0 18 17v13h-5zM3503 282h107
l-77 -175q-7 -26 -47 -26h-98v81h47q4 0 12 9zM3785 282h102l47 -111q9 -19 21 -13h39v-77h-90q-44 -6 -51 34zM4250 687h89l-106 -192h29l39 68h94l-137 -252h120v-76h-222v59l77 128h-77v94zM4151 85v77h222v-77h-222zM4523 691h102v-30h137v-76h-209l-52 -116h167
q7 0 11.5 3.5t1.5 9.5v64h85v-107q0 -26 -11 -38.5t-36 -12.5h-38v-217q0 -22 17 -22h64v-72h-116q-29 0 -41.5 14t-9.5 46v251h-200v60l59 137h-59v76h132v30h-4zM4467 367h81l-34 -226q-6 -36 -17 -47q-8 -9 -38 -9h-64v73h17q25 0 25 25z" />
    <glyph glyph-name="zhifuxttb" unicode="&#xe61c;" 
d="M942 26v583h-65h4h-645v58h631v75q0 25 -13.5 38.5t-27.5 14.5l-14 2h-614q-31 0 -54 -11.5t-34.5 -28t-18 -33t-8.5 -28.5l-1 -12v-655q0 -16 6 -28t14.5 -17.5t17 -8.5t14.5 -4h6h744q10 0 18 2t14 5t10.5 7t7 8.5t4.5 9t2.5 9t1 7.5t0.5 5v2zM665.5 210
q-43.5 0 -74.5 31t-31 74.5t31 75t74.5 31.5t74.5 -31.5t31 -75t-31 -74.5t-74.5 -31zM666 367q-23 0 -39 -16t-16 -39t16 -38.5t39 -15.5t38.5 15.5t15.5 38.5t-15.5 39t-38.5 16zM666 367z" />
    <glyph glyph-name="zhifuxt" unicode="&#xe61d;" horiz-adv-x="3353" 
d="M321 359l73 48l65 -46q7 -11 45 -11h87v51h-65q-6 0 -22 6l-54 39l144 115v34h-166v59h166v54h-166v39h-62v-39h-163v-54h163v-59h-163v-51h272l-73 -59l-48 34h-101l93 -76l-65 -42q-2 -3 -22 -3h-62v-53h79q21 0 45 14zM1097 747h-62v-42h-202v-57h202l-3 -236
q0 -20 -16 -20h-152v-50h177q31 0 39.5 8.5t8.5 33.5l5 262h17v53h-14v48zM990 463l3 163h-62l-3 -141q0 -17 -17 -17h-61v-50h95q23 -2 34 8.5t11 36.5zM737 345h65l5 326l31 79h-67l-28 -71q-8 -19 -23 -19h-11v-48h31zM1297 674l8 34h6l6 -17q11 -40 45 -40h90
q34 0 42 28l8 29h14l14 -37q9 -23 37 -23h53v45h-16q-8 0 -12 9l-3 6h29v42h-180l-3 -42q-4 -17 -20 -17h-20q-8 0 -17 8v9h40v45h-172l-8 -51q0 -4 -3.5 -7.5t-7.5 -3.5h-9v-45h34q33 4 45 28zM1286 589h264v-19h62l6 59h-164v11h-76v-11h-160l-3 -57h71v17zM1598 443h-301
v17h262q35 0 39 42v59h-366l-3 -219h330q37 0 42 45zM1300 519h236v-8q0 -12 -8 -12h-228v20zM1530 395q0 -11 -8 -11h-228v20h234zM2127 392h-90v34h90v51h-90v34h45q42 0 42 39l3 197h-242l-3 -236h90v-37h-96v-51h96v-33h-104v-45h262zM2042 693h31v-39h-31v39zM2042 598
h31v-34q0 -6 -5 -6h-26v40zM1972 558h-37v40h37v-40zM1975 654h-37v39h37v-39zM1862 696l3 54h-138v-54h42v-121h-47v-50h45l-3 -121h-45l-3 -48h141l3 45h-40l3 124h37l2 50h-39l3 121h36zM2408 345h65l3 152h115q34 0 39 5q9 9 9 37v56h-59v-37q0 -11 -12 -11h-188
l239 101h-129l-28 -11h-82l104 42h115q31 0 37 6q8 4 8 34v25h-56v-6q0 -11 -11 -11h-332v-50h115l-115 -37v-53h107l-113 -40v-53h172zM2577 347h59v51h-25q-10 0 -14 9l-31 73h-68l45 -110q9 -27 34 -23zM2312 477l-33 -70q-3 -6 -9 -6h-31v-51h65q28 0 31 17l51 115h-74
v-5zM2889 499h-79l96 166h-62l-25 -45h-20l73 127h-62l-64 -115l-3 -62h50l-50 -85l-3 -36h149v50zM2903 589v-39h132l-2 -166q-4 -39 33 -39h76v47h-42q-11 0 -11 15l3 143h25q35 0 31 34v70h-56v-42q0 -9 -9 -9h-109l33 76h138v51h-90v20h-67v-20h-88v-51h40zM3007 536
h-53l-23 -121q0 -21 -17 -17h-11v-48h45q20 0 26 6q6 3 11 31zM2886 398h-146v-48h146v48zM385 187q-15 11 -50 11h-118v-5q11 0 11 -6l-3 -155q0 -5 -11 -5v-6h62v6q-12 0 -12 5v59h68q36 0 51 12q19 14 19 39q0 32 -17 45zM354 128q-5 -3 -19 -3h-73v42h76q8 0 19 -5
q9 -4 9 -17q-5 -14 -12 -17zM610 35l-53 116l-3 5q0 2 -1.5 3t-1.5 3v3h3v5h-50v-5h2v-9q0 -1 -1 -4t-1 -4l-54 -110q0 -1 -1.5 -2.5t-1.5 -3.5q-3 -2 -5 -2v-6h45v6h-6l-3 2v3q0 3 3 6l8 17h74l8 -20q0 -3 3 -6v-2q0 -3 -3 -3h-3v-6h48v6q-3 0 -6 3q-2 0 -1 2t1 3zM501 83
l25 56l25 -56h-50zM776 165h3l3 -3q0 -3 -3 -6l-5 -5l-31 -43l-34 45l-3 3v3q0 3 3 3h3v5h-57v-5h6q2 0 3 -3l3 -3l56 -73v-51q0 -5 -6 -5v-6h45v6q-5 0 -5 5v51l53 68l9 8q5 6 8 6v5h-51v-5zM1024 165q3 0 3 -3t-3 -3q0 -1 -1.5 -2.5t-1.5 -3.5l-42 -76l-39 76l-3 6v3
q0 3 3 3v5h-48v-5h3v-6l-3 -124v-5h-3v-6h39v6q-5 0 -5 5l3 96l53 -107h3l59 107l-3 -96q0 -5 -6 -5v-6h37v6h-3l-3 2l3 127q0 3 3 3h3v5h-48v-2zM1283 49q-2 0 -3 -1.5t-3 -1.5h-87v40h62q3 0 3 -6h5v37h-5q0 -3 -3 -6h-59v34h81q12 0 12 -6h5v37h-5q0 -6 -12 -6h-121v-5h3
l3 -3l-3 -127q0 -3 -3 -3h-2v-5h129q3 0 3 -3h5v36h-5q4 -11 0 -11zM1494 165q5 0 5 -6l-2 -93l-79 85l-9 8q0 3 3 3v5h-50v-5q5 0 5 -6l-3 -126q0 -6 -5 -6v-6h42v6q-6 0 -7 3q0 1 1 3l3 98l82 -90l8 -8q3 -3 3 -6t-3 -3v-6h45v6q-5 0 -5 6l2 126q0 6 6 6v6h-42zM1736 170
q-2 0 -3 -1.5t-3 -1.5h-121q-3 0 -5 3q-3 0 -3 6h-6v-40h6q0 3 3 6h50l-3 -112q0 -3 -2 -3h-3v-6h42v6q-6 0 -6 5l3 113h51q3 0 3 -6h5v40h-5q0 -6 -3 -9zM1969 142q1 0 4.5 1.5t6.5 1.5h15q22 0 30 -3q17 -6 20 -8l3 -3v-3l6 -3l17 31l-3 3q-3 0 -3 -3h-3q-3 0 -8 3
q-2 1 -6 2.5t-6 3.5q-3 1 -9.5 2.5t-9.5 2.5q-9 3 -28 3q-32 0 -51 -14q-15 -11 -20 -34q0 -14 9 -22q7 -7 19 -12q17 -5 28 -5q5 0 14.5 -1.5t14.5 -1.5q8 0 19 -6q9 -4 9 -11q0 -6 -6 -11.5t-11 -5.5q-6 -3 -14 -3h-11q-9 0 -15 3q-5 0 -16.5 5.5t-13.5 8.5q-6 3 -6 9v3v2
l-6 3l-17 -36l6 -3l3 3q3 0 8 -3q3 -1 5 -2t5.5 -2t6.5 -2t10 -2.5t10 -2.5q5 -3 22 -3t26 3q12 0 25 8q8 3 20 14q8 8 8 25q0 14 -8 23q-12 11 -20 14q-17 6 -28 6q-4 0 -14 1t-14 1q-9 0 -20 6q-8 4 -8 11q0 6 2 9q2 1 2 -2q0 -4 1 -4zM2245 165h3l3 -3q0 -3 -3 -6l-6 -5
l-31 -43l-34 45l-2 3v3q0 3 2 3h3v5h-56v-5h6q1 0 3 -3q1 -2 2 -3l56 -73v-51q0 -5 -5 -5v-6h45v6q-6 0 -6 5v51l54 68l8 8q6 6 9 6v5h-51v-5zM2391 142q1 0 4.5 1.5t6.5 1.5h15q22 0 30 -3q17 -6 20 -8l3 -3v-3l6 -3l16 31l-2 3q-3 0 -3 -3h-3q-3 0 -8 3q-2 1 -6 2.5
t-6 3.5q-3 1 -9.5 2.5t-9.5 2.5q-9 3 -28 3q-32 0 -51 -14q-15 -11 -20 -34q0 -14 9 -22q7 -7 19 -12q17 -5 28 -5q6 0 15.5 -1.5t13.5 -1.5q8 0 19 -6q9 -4 9 -11q0 -6 -6 -11.5t-11 -5.5q-6 -3 -14 -3h-11q-9 0 -15 3q-5 0 -16.5 5.5t-13.5 8.5q-6 3 -6 9v3v2l-6 3
l-17 -36l6 -3l3 3q3 0 8 -3l17 -6q3 -1 10 -2.5t10 -2.5q8 -3 22 -3q17 0 26 3q14 0 22 8q3 3 10 7t10 7q8 8 8 25q0 14 -8 23q-11 11 -20 14q-17 6 -28 6q-6 0 -15 1t-13 1q-9 0 -20 6q-8 4 -8 11q0 6 3 9q0 -5 0.5 -6t2.5 0h2zM2689 170q-1 0 -2.5 -1.5t-2.5 -1.5h-121
q-3 0 -6 3q-3 0 -3 6h-5v-40h5q0 3 3 6h51l-3 -112q0 -3 -3 -3h-3v-6h43v6q-6 0 -6 5l3 113h50q3 0 3 -6h6v40h-6q0 -6 -3 -9zM2889 49q-1 0 -2.5 -1.5t-2.5 -1.5h-88v40h62q3 0 3 -6h6v37h-6q0 -3 -3 -6h-59v34h82q11 0 11 -6h6v37h-6q0 -6 -11 -6h-121v-5h3l2 -3l-2 -127
q0 -3 -3 -3h-3v-5h129q3 0 3 -3h6v36h-6q4 -11 0 -11zM3154 162h2v5h-47v-5q2 0 2 -3t-2 -3q0 -1 -1.5 -2.5t-1.5 -2.5l-42 -76l-40 76l-3 5v3q0 3 3 3v5h-48v-5h3v-6l-3 -124v-5h-2v-6h39v6q-6 0 -6 5l3 96l54 -107h2l59 107l-2 -96q0 -5 -6 -5v-6h39v6h-2l-3 3l3 126
q-3 6 0 6z" />
    <glyph glyph-name="zhifuxt2" unicode="&#xe61e;" horiz-adv-x="3353" 
d="M343 744v39h68v-39h166v-53h-166v-59h166v-34l-144 -116l54 -39q8 -6 22 -6h65v-50h-87q-35 0 -48 8l-65 45l-70 -48q-19 -11 -45 -11h-79v54h62q20 0 22 2l65 43l-93 76h102l45 -34l67 56h-273v51h163v59h-166v53h169v3zM698 696q15 0 19 17l28 70h71l-31 -78l-6 -327
h-64l5 270h-31v48h9zM1013 781h62v-45h17v-54h-17l-6 -261q0 -30 -8 -34q-13 -9 -43 -9h-182v51h151q21 0 17 20l9 233h-203v56h203v43zM909 660h62l-3 -163q2 -25 -10 -36.5t-35 -8.5h-96v50h62q9 0 13 3.5t4 13.5zM1432 663h163l-6 -60h-61l2 17h-264v-17h-68v57h161v11
h79zM1196 727h8q8 0 11 11l9 48h171v-45h-39l3 -5q4 -9 17 -9h19q16 0 20 17l6 39h180v-42h-28l2 -5q5 -9 12 -9h17v-45h-54q-28 0 -37 23l-14 36h-14l-8 -28q-8 -28 -42 -28h-90q-32 0 -45 39l-6 17h-6l-8 -33q-8 -26 -45 -26h-34zM1578 595v-59q-4 -42 -39 -42h-262v-17
h301v-54q-4 -45 -42 -45h-329l3 217h368zM1511 437h-234v-19h228q8 0 8 11zM1513 556h-236v-23h228q8 0 8 11v12zM1705 733v50h138v-50h-40l-3 -124h40v-51h-40l-2 -121h39v-45h-141v48h48l3 121h-45v51h45l3 124h-45v-3zM2107 781l-3 -197q0 -44 -42 -40h-45v-33h90v-48
h-90v-34h90v-45h-262v45h105v34h-96v48h96v36h-93l3 236h247v-2zM1950 592v40h-37v-40h37zM1952 688v39h-36v-39h36zM2051 634h-31v-39h25q6 0 6 6v33zM2051 688v39h-31v-39h31zM2290 513h70l-50 -115q-5 -17 -31 -17h-65v51h31q3 0 8 5zM2566 783h56v-25q0 -29 -9 -34
q-5 -8 -36 -8h-115l-105 -42h82l28 11h130l-240 -101h189q11 0 11 11v37h59v-57q0 -28 -8 -36q-6 -6 -40 -6h-115l-3 -152h-64l2 149h-171v54l107 39h-107v54l115 36h-115v51h332q15 0 11 11zM2478 513h68l31 -73q6 -12 14 -8h25v-51h-59q-29 -4 -34 23zM2718 384v51h146
v-51h-146zM2788 781h59l-73 -127h19l26 45h62l-96 -166h79v-51h-146v40l50 84h-50v62zM2929 570h53l-23 -149q-3 -24 -11 -31q-5 -6 -25 -6h-45v48h11q17 0 17 17zM2968 783h67v-19h90v-51h-137l-34 -76h110q4 0 7 2.5t1 6.5v42h56v-71q0 -33 -31 -33h-31l-2 -144
q0 -6 2.5 -10t8.5 -4h42v-48h-76q-38 0 -34 40l3 166h-132v39l42 90h-39v51h87v19zM188 55v5q12 0 12 6l3 152q0 6 -12 6v5h118q36 0 51 -11q17 -13 17 -39q0 -32 -20 -40q-15 -11 -50 -11h-68v-59q0 -6 11 -6v-5h-62v-3zM315 159q9 0 20 6q8 4 8 16.5t-8 16.5q-11 6 -20 6
h-73v-42h73v-3zM416 63l6 3q3 3 3 6l53 109q3 3 3 9v6v2h-3v6h57v-6h-3v-2q0 -3 3 -6q0 -2 1 -3t1 -3l54 -115q0 -1 1.5 -2.5t1.5 -3.5q0 -3 5 -3v-5h-48v5h3l3 3v3q0 3 -3 6l-8 19h-73l-9 -16q0 -2 -1.5 -3.5t-1.5 -2.5v-3q0 -3 3 -3h6v-5h-45zM532 117l-26 56l-25 -56h51z
M647 193l-6 5h-5v6h56v-6h-3l-3 -2v-3l3 -3l34 -45l31 42q1 1 2 3q2 3 4 3q0 1 1 2.5t1 2.5q0 3 -2 3h-3v6h50v-6q-2 0 -8 -5l-8 -9l-54 -67v-51q0 -6 6 -6v-5h-45v5q5 0 5 6v51zM866 63h3v6l3 124v5h-3v6h48v-6q-3 0 -3 -2v-3q0 -2 1.5 -3.5t1.5 -2.5l39 -76l43 76l2 6
q0 3 3 3q0 2 -3 2v6h48v-6h-2l-3 -2l-3 -127q0 -3 3 -3h3v-6h-40v6q6 0 6 6l3 95l-60 -112h-2l-54 107v-96q0 -6 6 -6v-5h-40v8zM1263 173q0 4 -2 5t-9 1h-82v-34h59q3 0 3 6h6v-37h-6q0 3 -3 6h-62v-40h88q5 0 5 3q0 1 1.5 2.5t1.5 3.5h6v-37h-6q0 3 -3 3h-129v5h3l3 3
l2 127q0 3 -2 3h-3v5h121q11 0 11 6h6v-37h-9v6zM1342 63q6 0 6 6l2 127q0 5 -5 5v6h50v-6q-2 0 -2 -3l8 -8l79 -85l3 93q0 6 -6 6v6h42v-6q-6 0 -6 -6l-2 -126q0 -6 5 -6v-6h-45v6q3 0 3 3t-3 6l-8 8l-82 90l-3 -98q0 -6 6 -6v-6h-42zM1626 63h3l3 3l2 113h-50q-3 0 -3 -6
h-6v39h6q0 -5 3 -5q1 0 2.5 -1.5t2.5 -1.5h121q3 0 6 3q3 0 3 5h5v-39h-8q0 3 -3 6q0 2 -2.5 1l-2.5 -1h-45l-3 -113q0 -6 5 -6v-5h-42zM1919 108v-5q0 -3 5 -9q3 -1 7 -4t7 -4.5t8.5 -2.5t8.5 -3q3 0 8 -1.5t6 -1.5h11q9 0 15 3q2 1 4.5 2t4 2t2.5 2q5 5 5 11q0 7 -8 11
q-3 2 -9.5 3.5t-10.5 2.5q-4 0 -13 1.5t-15 1.5q-11 0 -28 5q-13 5 -20 12q-8 8 -8 22q0 22 20 34q18 14 50 14q20 0 28 -3q4 -1 10.5 -2.5t9.5 -2.5q2 -2 4.5 -2.5t4 -1.5t2.5 -2q3 -3 9 -3h3q2 0 2 3l3 -3l-17 -31l-5 3v3q0 3 -3 3q-2 0 -5.5 2.5t-7 4t-7.5 1.5
q-8 3 -31 3h-14q-1 0 -5.5 -1.5t-5.5 -1.5q-3 0 -9 -6q-2 -2 -2 -8q0 -7 8 -11q3 -2 9.5 -3.5t10.5 -2.5q8 -3 28 -3q11 0 28 -5q8 -3 20 -14q8 -9 8 -23q0 -13 -8 -25q-12 -12 -20 -14q-3 -1 -7.5 -3t-8.5 -3.5t-9 -2.5q-4 0 -12.5 -1.5t-13.5 -1.5q-14 0 -22 3
q-4 1 -10.5 2.5t-9.5 3.5q-3 1 -8.5 2.5t-8.5 2.5q-5 3 -8 3t-3 -3l-6 3l17 37zM2116 193l-6 5h-6v6h57v-6h-3l-3 -2v-3l3 -3l33 -45l31 42l3 3q1 3 3 3q0 1 1.5 2.5t1.5 2.5q0 3 -3 3h-3v6h51v-6q-3 0 -9 -5l-8 -9l-53 -67v-51q0 -6 5 -6v-5h-45v5q6 0 6 6v51zM2343 108v-5
q0 -3 6 -9q3 -3 14 -8q3 -2 8.5 -3t8.5 -3q6 -3 14 -3h11q9 0 14 3l12 6q5 5 5 11q0 7 -8 11q-3 2 -9.5 3.5t-10.5 2.5q-4 0 -13 1.5t-15 1.5q-11 0 -28 5q-13 5 -20 12q-8 8 -8 22q0 22 19 34q19 14 51 14q20 0 28 -3q4 -1 10.5 -2.5t9.5 -2.5l11 -6q3 -3 9 -3h2q3 0 3 3
l3 -3l-17 -31l-6 3v3q0 3 -2 3t-6 2.5t-7 4t-7 1.5q-8 3 -31 3h-14q-1 0 -5.5 -1.5t-5.5 -1.5q-3 0 -9 -6q-3 -2 -3 -8q0 -7 9 -11q3 -2 9.5 -3.5t10.5 -2.5q3 0 12.5 -1.5t15.5 -1.5q11 0 28 -5q8 -3 20 -14q8 -9 8 -23q0 -13 -8 -25q-12 -12 -20 -14l-25 -9
q-5 0 -13.5 -1.5t-12.5 -1.5q-14 0 -22 3q-4 1 -10.5 2.5t-9.5 3.5q-3 1 -8.5 2.5t-8.5 2.5q-5 3 -8 3t-3 -3l-6 3l17 37zM2580 63h3l2 3l3 113h-51q-2 0 -2 -6h-6v39h6q0 -5 2 -5t3.5 -1.5t2.5 -1.5h121q3 0 6 3q3 0 3 5h5v-39h-5q0 3 -3 6q-1 2 -3 1t-3 -1h-45l-3 -113
q0 -6 6 -6v-5h-42v8zM2869 173q0 4 -2 5t-9 1h-81v-34h59q3 0 3 6h5v-37h-5q0 3 -3 6h-62v-40h87q6 0 6 3q2 0 2 6h6v-37h-6q0 3 -2 3h-130v5h3l3 3l3 127q0 3 -3 3h-3v5h121q11 0 11 6h6v-37h-9v6zM2951 63h3v6l3 124v5h-3v6h48v-6q-3 0 -3 -2v-3q0 -2 1.5 -3.5t1.5 -2.5
l39 -76l42 76l3 6q0 3 3 3q0 2 -3 2v6h48v-6h-3l-3 -2l-3 -127q0 -3 3 -3h3v-6h-39v6q5 0 5 6l3 95l-59 -107h-3l-53 107l-3 -95q0 -6 6 -6v-6h-40z" />
    <glyph glyph-name="zhifuxt3" unicode="&#xe61f;" horiz-adv-x="3353" 
d="M326 196l71 47l64 -45q13 -8 48 -8h87v51h-64q-6 0 -23 5l-53 40l143 115v34h-166v59h166v53h-166v40h-67v-40h-163v-53h166v-59h-164v-51h273l-73 -59l-45 34h-101l93 -76l-65 -42q-6 -3 -23 -3h-61v-54h78q27 0 45 12zM993 300l3 163h-62l-3 -141q0 -17 -17 -17h-62
v-50h96q25 -3 36 8t9 37zM1100 584h-59v-42h-203v-57h203l-3 -236q0 -20 -17 -20h-152v-50h183q31 0 39.5 8.5t8.5 33.5l6 261h16v54h-16zM740 181h65l5 327l34 76h-68l-28 -71q-4 -16 -19 -16h-12v-48h31zM1288 426h268l-3 -17h65l5 57h-163v11h-79v-11h-160v-57h67v17z
M1300 511l8 33h6l5 -17q12 -39 45 -39h90q35 0 43 28l8 28h14l14 -36q9 -23 37 -23h53v45h-17q-7 0 -11 9l-3 5h28v43h-180v-40q-4 -17 -19 -17h-20q-8 0 -17 9l-3 5h40v45h-172l-8 -47q0 -5 -3.5 -8.5t-8.5 -3.5h-8v-45h34q36 0 45 26zM1604 280h-301v17h261q35 0 40 42v59
h-366l-6 -217h329q38 0 43 45v54zM1305 359h237v-9q0 -11 -9 -11h-228v20zM1536 232q0 -11 -8 -11h-228v20h233zM2132 229h-90v34h90v48h-90v34h45q43 0 43 39l2 197h-247v-231h90v-36h-96v-48h96v-34h-104v-45h261v42zM2048 530h31v-39h-31v39zM2045 437h31v-33q0 -6 -5 -6
h-26v39zM1978 395h-37v40h37v-40zM1978 491h-37v39h37v-39zM1868 536v51h-135l-3 -51h45l-3 -124h-45v-48h45l-3 -123h-47v-45h140v45h-39l3 120h39v51h-36v124h39zM2411 184h65l2 152h116q34 0 39 6q9 8 9 36v57h-54v-37q0 -11 -11 -11h-189l240 101h-130l-28 -11h-82
l104 42h116q31 0 36 6q9 4 9 33v26h-56v-6q0 -11 -12 -11h-332v-51h116l-116 -36v-54h107l-107 -39v-54h172zM2583 184h59v51h-26q-10 0 -14 8l-31 73h-67l45 -109q3 -23 34 -23zM2318 316l-34 -73q-3 -5 -8 -5h-31v-51h65q27 0 31 17l50 115h-73v-3zM2906 429v-39h132
l-3 -166q-4 -40 34 -40h76v48h-42q-11 0 -11 14l3 144h25q35 0 31 33v71h-56v-42q0 -9 -9 -9h-110l34 76h138v51h-90v19h-68v-19h-87v-51h40zM3010 373h-53l-23 -121q0 -21 -17 -17h-11v-48h45q20 0 25 6q7 3 12 31zM2892 238h-146l-3 -51h146zM2895 336h-79l93 166h-62
l-25 -45h-20l73 127h-59l-68 -113v-62h48l-50 -84v-39h146z" />
  </font>
</defs>
</svg>
